<?xml version="1.0" encoding="UTF-8"?>
<svg version="1.1" xmlns="http://www.w3.org/2000/svg" width="121" height="38">
<path d="M0 0 C2.64 0 5.28 0 8 0 C8.66 1.98 9.32 3.96 10 6 C10.66 6 11.32 6 12 6 C13.32 9.3 14.64 12.6 16 16 C16.33 10.72 16.66 5.44 17 0 C18.98 0 20.96 0 23 0 C23 9.9 23 19.8 23 30 C20.36 30 17.72 30 15 30 C12.69 25.71 10.38 21.42 8 17 C7.67 21.29 7.34 25.58 7 30 C4.69 30 2.38 30 0 30 C0 20.1 0 10.2 0 0 Z " fill="#597564" transform="translate(98,0)"/>
<path d="M0 0 C2.64 0 5.28 0 8 0 C8.33 1.32 8.66 2.64 9 4 C9.66 4 10.32 4 11 4 C12.65 7.96 14.3 11.92 16 16 C16.33 10.72 16.66 5.44 17 0 C18.98 0 20.96 0 23 0 C23 9.9 23 19.8 23 30 C16 30 16 30 14.19921875 28.78125 C12.83065905 26.74847078 11.79048387 24.74823878 10.8125 22.5 C10.46832031 21.7265625 10.12414062 20.953125 9.76953125 20.15625 C9 18 9 18 9 15 C8.34 15 7.68 15 7 15 C7 19.95 7 24.9 7 30 C4.69 30 2.38 30 0 30 C0 20.1 0 10.2 0 0 Z " fill="#597664" transform="translate(71,0)"/>
<path d="M0 0 C4.95 0 9.9 0 15 0 C15.99 0.99 16.98 1.98 18 3 C18 3.66 18 4.32 18 5 C18.66 5 19.32 5 20 5 C20 8.63 20 12.26 20 16 C19.34 16 18.68 16 18 16 C17.01 18.475 17.01 18.475 16 21 C13.03 21 10.06 21 7 21 C7 23.97 7 26.94 7 30 C4.69 30 2.38 30 0 30 C0 20.1 0 10.2 0 0 Z M7 7 C7 9.31 7 11.62 7 14 C8.66611905 14.042721 10.33382885 14.04063832 12 14 C13.28322547 12.9404123 13.28322547 12.9404123 13.125 10.5 C13.28322547 8.0595877 13.28322547 8.0595877 12 7 C10.33382885 6.95936168 8.66611905 6.957279 7 7 Z " fill="#3470A2" transform="translate(0,0)"/>
<path d="M0 0 C0.9590625 -0.02578125 1.918125 -0.0515625 2.90625 -0.078125 C5.5 0.25 5.5 0.25 7.34375 1.640625 C8.5 3.25 8.5 3.25 8.5 5.25 C9.16 5.25 9.82 5.25 10.5 5.25 C10.542721 6.91611905 10.54063832 8.58382885 10.5 10.25 C9.5 11.25 9.5 11.25 6.4375 11.3125 C5.468125 11.291875 4.49875 11.27125 3.5 11.25 C3.17 10.26 2.84 9.27 2.5 8.25 C0.85 8.25 -0.8 8.25 -2.5 8.25 C-2.5 13.2 -2.5 18.15 -2.5 23.25 C-0.85 23.25 0.8 23.25 2.5 23.25 C2.83 22.26 3.16 21.27 3.5 20.25 C5.81 20.25 8.12 20.25 10.5 20.25 C10.5 22.23 10.5 24.21 10.5 26.25 C9.84 26.25 9.18 26.25 8.5 26.25 C8.17 27.24 7.84 28.23 7.5 29.25 C4.81432703 30.59283649 2.62253147 30.49287519 -0.375 30.5625 C-1.42429687 30.59988281 -2.47359375 30.63726563 -3.5546875 30.67578125 C-6.5 30.25 -6.5 30.25 -8.859375 28.88671875 C-11.46344222 24.70161072 -10.99931189 20.57199295 -10.875 15.75 C-10.87371094 14.79996094 -10.87242188 13.84992187 -10.87109375 12.87109375 C-10.76728733 4.67038658 -10.76728733 4.67038658 -8.5 1.25 C-5.45059327 0.23353109 -3.19630097 0.05155324 0 0 Z " fill="#597565" transform="translate(57.5,-0.25)"/>
<path d="M0 0 C2.31 0 4.62 0 7 0 C7.06058594 0.98742187 7.12117188 1.97484375 7.18359375 2.9921875 C7.26738281 4.27351562 7.35117187 5.55484375 7.4375 6.875 C7.51871094 8.15117187 7.59992187 9.42734375 7.68359375 10.7421875 C7.79206027 13.88300152 7.79206027 13.88300152 9 16 C9.66 16 10.32 16 11 16 C12.4807848 13.0384304 12.35314037 10.16493705 12.5625 6.875 C12.64628906 5.59367188 12.73007812 4.31234375 12.81640625 2.9921875 C12.87699219 2.00476563 12.93757813 1.01734375 13 0 C15.31 0 17.62 0 20 0 C20.13559675 2.56428515 20.23433188 5.12135216 20.3125 7.6875 C20.35439453 8.40873047 20.39628906 9.12996094 20.43945312 9.87304688 C20.53529441 14.07089518 20.41099811 15.50921596 17.60546875 18.859375 C16.74566406 19.56578125 15.88585937 20.2721875 15 21 C14.34 21.845625 13.68 22.69125 13 23.5625 C10.8578071 26.1732976 8.79957524 28.11028671 6 30 C4.68 30 3.36 30 2 30 C1.875 27.625 1.875 27.625 2 25 C2.66 24.34 3.32 23.68 4 23 C3.73323796 21.01508358 3.73323796 21.01508358 3 19 C2.67 18.01 2.34 17.02 2 16 C1.34 16 0.68 16 0 16 C0 10.72 0 5.44 0 0 Z " fill="#FBCF45" transform="translate(23,7)"/>
</svg>
