<svg width="121" height="37" viewBox="0 0 121 37" fill="none" xmlns="http://www.w3.org/2000/svg">
<path d="M1.17073 28.0976V29.2683H2.14577e-06V28.0976H1.17073ZM1.17073 26.9268V28.0976H2.14577e-06V26.9268H1.17073ZM1.17073 25.7561V26.9268H2.14577e-06V25.7561H1.17073ZM1.17073 24.5854V25.7561H2.14577e-06V24.5854H1.17073ZM1.17073 23.4146V24.5854H2.14577e-06V23.4146H1.17073ZM1.17073 22.2439V23.4146H2.14577e-06V22.2439H1.17073ZM1.17073 21.0732V22.2439H2.14577e-06V21.0732H1.17073ZM1.17073 19.9024V21.0732H2.14577e-06V19.9024H1.17073ZM1.17073 18.7317V19.9024H2.14577e-06V18.7317H1.17073ZM1.17073 17.561V18.7317H2.14577e-06V17.561H1.17073ZM1.17073 16.3902V17.561H2.14577e-06V16.3902H1.17073ZM1.17073 15.2195V16.3902H2.14577e-06V15.2195H1.17073ZM1.17073 14.0488V15.2195H2.14577e-06V14.0488H1.17073ZM1.17073 12.8781V14.0488H2.14577e-06V12.8781H1.17073ZM1.17073 11.7073V12.8781H2.14577e-06V11.7073H1.17073ZM2.34147 11.7073V12.8781H1.17073V11.7073H2.34147ZM2.34147 12.8781V14.0488H1.17073V12.8781H2.34147ZM2.34147 14.0488V15.2195H1.17073V14.0488H2.34147ZM2.34147 15.2195V16.3902H1.17073V15.2195H2.34147ZM2.34147 16.3902V17.561H1.17073V16.3902H2.34147ZM2.34147 17.561V18.7317H1.17073V17.561H2.34147ZM2.34147 18.7317V19.9024H1.17073V18.7317H2.34147ZM3.5122 19.9024V21.0732H2.34147V19.9024H3.5122ZM3.5122 21.0732V22.2439H2.34147V21.0732H3.5122ZM3.5122 22.2439V23.4146H2.34147V22.2439H3.5122ZM3.5122 23.4146V24.5854H2.34147V23.4146H3.5122ZM3.5122 24.5854V25.7561H2.34147V24.5854H3.5122ZM3.5122 25.7561V26.9268H2.34147V25.7561H3.5122ZM3.5122 26.9268V28.0976H2.34147V26.9268H3.5122ZM3.5122 28.0976V29.2683H2.34147V28.0976H3.5122ZM4.68293 28.0976V29.2683H3.5122V28.0976H4.68293ZM5.85366 28.0976V29.2683H4.68293V28.0976H5.85366ZM5.85366 23.4146V24.5854H4.68293V23.4146H5.85366ZM5.85366 22.2439V23.4146H4.68293V22.2439H5.85366ZM5.85366 21.0732V22.2439H4.68293V21.0732H5.85366ZM5.85366 19.9024V21.0732H4.68293V19.9024H5.85366ZM4.68293 19.9024V21.0732H3.5122V19.9024H4.68293ZM4.68293 18.7317V19.9024H3.5122V18.7317H4.68293ZM4.68293 21.0732V22.2439H3.5122V21.0732H4.68293ZM4.68293 22.2439V23.4146H3.5122V22.2439H4.68293ZM4.68293 23.4146V24.5854H3.5122V23.4146H4.68293ZM4.68293 24.5854V25.7561H3.5122V24.5854H4.68293ZM4.68293 25.7561V26.9268H3.5122V25.7561H4.68293ZM4.68293 26.9268V28.0976H3.5122V26.9268H4.68293ZM2.34147 28.0976V29.2683H1.17073V28.0976H2.34147ZM2.34147 26.9268V28.0976H1.17073V26.9268H2.34147ZM2.34147 25.7561V26.9268H1.17073V25.7561H2.34147ZM2.34147 24.5854V25.7561H1.17073V24.5854H2.34147ZM2.34147 23.4146V24.5854H1.17073V23.4146H2.34147ZM2.34147 22.2439V23.4146H1.17073V22.2439H2.34147ZM2.34147 21.0732V22.2439H1.17073V21.0732H2.34147ZM2.34147 19.9024V21.0732H1.17073V19.9024H2.34147ZM1.17073 1.90735e-06V1.17074H2.14577e-06V1.90735e-06H1.17073ZM1.17073 1.17074V2.34147H2.14577e-06V1.17074H1.17073ZM1.17073 2.34147V3.5122H2.14577e-06V2.34147H1.17073ZM1.17073 3.5122V4.68293H2.14577e-06V3.5122H1.17073ZM1.17073 4.68293V5.85366H2.14577e-06V4.68293H1.17073ZM1.17073 5.85366V7.02439H2.14577e-06V5.85366H1.17073ZM1.17073 7.02439V8.19512H2.14577e-06V7.02439H1.17073ZM1.17073 8.19512V9.36586H2.14577e-06V8.19512H1.17073ZM1.17073 9.36586V10.5366H2.14577e-06V9.36586H1.17073ZM1.17073 10.5366V11.7073H2.14577e-06V10.5366H1.17073ZM4.68293 1.90735e-06V1.17074H3.5122V1.90735e-06H4.68293ZM4.68293 1.17074V2.34147H3.5122V1.17074H4.68293ZM4.68293 2.34147V3.5122H3.5122V2.34147H4.68293ZM4.68293 3.5122V4.68293H3.5122V3.5122H4.68293ZM4.68293 4.68293V5.85366H3.5122V4.68293H4.68293ZM4.68293 5.85366V7.02439H3.5122V5.85366H4.68293ZM4.68293 8.19512V9.36586H3.5122V8.19512H4.68293ZM4.68293 9.36586V10.5366H3.5122V9.36586H4.68293ZM4.68293 10.5366V11.7073H3.5122V10.5366H4.68293ZM4.68293 11.7073V12.8781H3.5122V11.7073H4.68293ZM4.68293 12.8781V14.0488H3.5122V12.8781H4.68293ZM4.68293 14.0488V15.2195H3.5122V14.0488H4.68293ZM4.68293 15.2195V16.3902H3.5122V15.2195H4.68293ZM5.85366 16.3902V17.561H4.68293V16.3902H5.85366ZM5.85366 17.561V18.7317H4.68293V17.561H5.85366ZM5.85366 18.7317V19.9024H4.68293V18.7317H5.85366ZM5.85366 15.2195V16.3902H4.68293V15.2195H5.85366ZM5.85366 14.0488V15.2195H4.68293V14.0488H5.85366ZM5.85366 12.8781V14.0488H4.68293V12.8781H5.85366ZM5.85366 11.7073V12.8781H4.68293V11.7073H5.85366ZM5.85366 10.5366V11.7073H4.68293V10.5366H5.85366ZM5.85366 9.36586V10.5366H4.68293V9.36586H5.85366ZM5.85366 8.19512V9.36586H4.68293V8.19512H5.85366ZM5.85366 7.02439V8.19512H4.68293V7.02439H5.85366ZM5.85366 5.85366V7.02439H4.68293V5.85366H5.85366ZM5.85366 4.68293V5.85366H4.68293V4.68293H5.85366ZM4.68293 7.02439V8.19512H3.5122V7.02439H4.68293ZM5.85366 3.5122V4.68293H4.68293V3.5122H5.85366ZM5.85366 2.34147V3.5122H4.68293V2.34147H5.85366ZM5.85366 1.17074V2.34147H4.68293V1.17074H5.85366ZM5.85366 1.90735e-06V1.17074H4.68293V1.90735e-06H5.85366ZM3.5122 1.90735e-06V1.17074H2.34147V1.90735e-06H3.5122ZM2.34147 1.90735e-06V1.17074H1.17073V1.90735e-06H2.34147ZM2.34147 1.17074V2.34147H1.17073V1.17074H2.34147ZM3.5122 1.17074V2.34147H2.34147V1.17074H3.5122ZM3.5122 2.34147V3.5122H2.34147V2.34147H3.5122ZM3.5122 3.5122V4.68293H2.34147V3.5122H3.5122ZM3.5122 4.68293V5.85366H2.34147V4.68293H3.5122ZM3.5122 5.85366V7.02439H2.34147V5.85366H3.5122ZM3.5122 7.02439V8.19512H2.34147V7.02439H3.5122ZM3.5122 8.19512V9.36586H2.34147V8.19512H3.5122ZM2.34147 9.36586V10.5366H1.17073V9.36586H2.34147ZM2.34147 10.5366V11.7073H1.17073V10.5366H2.34147ZM2.34147 8.19512V9.36586H1.17073V8.19512H2.34147ZM2.34147 7.02439V8.19512H1.17073V7.02439H2.34147ZM2.34147 5.85366V7.02439H1.17073V5.85366H2.34147ZM2.34147 4.68293V5.85366H1.17073V4.68293H2.34147ZM2.34147 3.5122V4.68293H1.17073V3.5122H2.34147ZM2.34147 2.34147V3.5122H1.17073V2.34147H2.34147ZM3.5122 9.36586V10.5366H2.34147V9.36586H3.5122ZM3.5122 10.5366V11.7073H2.34147V10.5366H3.5122ZM3.5122 11.7073V12.8781H2.34147V11.7073H3.5122ZM3.5122 12.8781V14.0488H2.34147V12.8781H3.5122ZM3.5122 14.0488V15.2195H2.34147V14.0488H3.5122ZM3.5122 15.2195V16.3902H2.34147V15.2195H3.5122ZM3.5122 16.3902V17.561H2.34147V16.3902H3.5122ZM3.5122 17.561V18.7317H2.34147V17.561H3.5122ZM3.5122 18.7317V19.9024H2.34147V18.7317H3.5122ZM4.68293 17.561V18.7317H3.5122V17.561H4.68293ZM4.68293 16.3902V17.561H3.5122V16.3902H4.68293ZM7.02439 16.3902V17.561H5.85366V16.3902H7.02439ZM8.19512 16.3902V17.561H7.02439V16.3902H8.19512ZM8.19512 17.561V18.7317H7.02439V17.561H8.19512ZM7.02439 17.561V18.7317H5.85366V17.561H7.02439ZM7.02439 14.0488V15.2195H5.85366V14.0488H7.02439ZM8.19512 14.0488V15.2195H7.02439V14.0488H8.19512ZM7.02439 18.7317V19.9024H5.85366V18.7317H7.02439ZM8.19512 18.7317V19.9024H7.02439V18.7317H8.19512ZM8.19512 15.2195V16.3902H7.02439V15.2195H8.19512ZM7.02439 15.2195V16.3902H5.85366V15.2195H7.02439ZM7.02439 1.90735e-06V1.17074H5.85366V1.90735e-06H7.02439ZM8.19512 1.90735e-06V1.17074H7.02439V1.90735e-06H8.19512ZM8.19512 1.17074V2.34147H7.02439V1.17074H8.19512ZM7.02439 1.17074V2.34147H5.85366V1.17074H7.02439ZM7.02439 2.34147V3.5122H5.85366V2.34147H7.02439ZM8.19512 2.34147V3.5122H7.02439V2.34147H8.19512ZM8.19512 3.5122V4.68293H7.02439V3.5122H8.19512ZM7.02439 3.5122V4.68293H5.85366V3.5122H7.02439ZM7.02439 4.68293V5.85366H5.85366V4.68293H7.02439ZM8.19512 4.68293V5.85366H7.02439V4.68293H8.19512ZM9.36586 14.0488V15.2195H8.19512V14.0488H9.36586ZM10.5366 14.0488V15.2195H9.36586V14.0488H10.5366ZM11.7073 14.0488V15.2195H10.5366V14.0488H11.7073ZM12.8781 12.8781V14.0488H11.7073V12.8781H12.8781ZM14.0488 11.7073V12.8781H12.8781V11.7073H14.0488ZM14.0488 10.5366V11.7073H12.8781V10.5366H14.0488ZM14.0488 7.02439V8.19512H12.8781V7.02439H14.0488ZM12.8781 5.85366V7.02439H11.7073V5.85366H12.8781ZM11.7073 4.68293V5.85366H10.5366V4.68293H11.7073ZM10.5366 4.68293V5.85366H9.36586V4.68293H10.5366ZM9.36586 4.68293V5.85366H8.19512V4.68293H9.36586ZM9.36586 1.90735e-06V1.17074H8.19512V1.90735e-06H9.36586ZM10.5366 1.90735e-06V1.17074H9.36586V1.90735e-06H10.5366ZM11.7073 1.90735e-06V1.17074H10.5366V1.90735e-06H11.7073ZM12.8781 1.90735e-06V1.17074H11.7073V1.90735e-06H12.8781ZM12.8781 1.17074V2.34147H11.7073V1.17074H12.8781ZM12.8781 2.34147V3.5122H11.7073V2.34147H12.8781ZM12.8781 3.5122V4.68293H11.7073V3.5122H12.8781ZM11.7073 3.5122V4.68293H10.5366V3.5122H11.7073ZM11.7073 2.34147V3.5122H10.5366V2.34147H11.7073ZM10.5366 2.34147V3.5122H9.36586V2.34147H10.5366ZM9.36586 2.34147V3.5122H8.19512V2.34147H9.36586ZM9.36586 1.17074V2.34147H8.19512V1.17074H9.36586ZM10.5366 1.17074V2.34147H9.36586V1.17074H10.5366ZM11.7073 1.17074V2.34147H10.5366V1.17074H11.7073ZM9.36586 3.5122V4.68293H8.19512V3.5122H9.36586ZM10.5366 3.5122V4.68293H9.36586V3.5122H10.5366ZM12.8781 4.68293V5.85366H11.7073V4.68293H12.8781ZM14.0488 5.85366V7.02439H12.8781V5.85366H14.0488ZM14.0488 4.68293V5.85366H12.8781V4.68293H14.0488ZM14.0488 3.5122V4.68293H12.8781V3.5122H14.0488ZM14.0488 2.34147V3.5122H12.8781V2.34147H14.0488ZM14.0488 1.17074V2.34147H12.8781V1.17074H14.0488ZM14.0488 1.90735e-06V1.17074H12.8781V1.90735e-06H14.0488ZM14.0488 12.8781V14.0488H12.8781V12.8781H14.0488ZM14.0488 14.0488V15.2195H12.8781V14.0488H14.0488ZM14.0488 15.2195V16.3902H12.8781V15.2195H14.0488ZM14.0488 16.3902V17.561H12.8781V16.3902H14.0488ZM12.8781 16.3902V17.561H11.7073V16.3902H12.8781ZM11.7073 16.3902V17.561H10.5366V16.3902H11.7073ZM10.5366 16.3902V17.561H9.36586V16.3902H10.5366ZM9.36586 16.3902V17.561H8.19512V16.3902H9.36586ZM9.36586 15.2195V16.3902H8.19512V15.2195H9.36586ZM10.5366 15.2195V16.3902H9.36586V15.2195H10.5366ZM11.7073 15.2195V16.3902H10.5366V15.2195H11.7073ZM12.8781 15.2195V16.3902H11.7073V15.2195H12.8781ZM12.8781 14.0488V15.2195H11.7073V14.0488H12.8781ZM9.36586 17.561V18.7317H8.19512V17.561H9.36586ZM10.5366 17.561V18.7317H9.36586V17.561H10.5366ZM11.7073 17.561V18.7317H10.5366V17.561H11.7073ZM12.8781 17.561V18.7317H11.7073V17.561H12.8781ZM14.0488 17.561V18.7317H12.8781V17.561H14.0488ZM14.0488 18.7317V19.9024H12.8781V18.7317H14.0488ZM12.8781 18.7317V19.9024H11.7073V18.7317H12.8781ZM11.7073 18.7317V19.9024H10.5366V18.7317H11.7073ZM10.5366 18.7317V19.9024H9.36586V18.7317H10.5366ZM9.36586 18.7317V19.9024H8.19512V18.7317H9.36586ZM15.2195 1.17074V2.34147H14.0488V1.17074H15.2195ZM16.3902 1.17074V2.34147H15.2195V1.17074H16.3902ZM16.3902 2.34147V3.5122H15.2195V2.34147H16.3902ZM17.561 2.34147V3.5122H16.3902V2.34147H17.561ZM17.561 3.5122V4.68293H16.3902V3.5122H17.561ZM17.561 4.68293V5.85366H16.3902V4.68293H17.561ZM18.7317 4.68293V5.85366H17.561V4.68293H18.7317ZM18.7317 5.85366V7.02439H17.561V5.85366H18.7317ZM18.7317 7.02439V8.19512H17.561V7.02439H18.7317ZM18.7317 10.5366V11.7073H17.561V10.5366H18.7317ZM18.7317 11.7073V12.8781H17.561V11.7073H18.7317ZM18.7317 12.8781V14.0488H17.561V12.8781H18.7317ZM18.7317 14.0488V15.2195H17.561V14.0488H18.7317ZM17.561 15.2195V16.3902H16.3902V15.2195H17.561ZM16.3902 16.3902V17.561H15.2195V16.3902H16.3902ZM15.2195 17.561V18.7317H14.0488V17.561H15.2195ZM16.3902 17.561V18.7317H15.2195V17.561H16.3902ZM15.2195 18.7317V19.9024H14.0488V18.7317H15.2195ZM15.2195 2.34147V3.5122H14.0488V2.34147H15.2195ZM15.2195 3.5122V4.68293H14.0488V3.5122H15.2195ZM15.2195 4.68293V5.85366H14.0488V4.68293H15.2195ZM15.2195 5.85366V7.02439H14.0488V5.85366H15.2195ZM15.2195 7.02439V8.19512H14.0488V7.02439H15.2195ZM15.2195 10.5366V11.7073H14.0488V10.5366H15.2195ZM15.2195 11.7073V12.8781H14.0488V11.7073H15.2195ZM15.2195 12.8781V14.0488H14.0488V12.8781H15.2195ZM15.2195 14.0488V15.2195H14.0488V14.0488H15.2195ZM15.2195 15.2195V16.3902H14.0488V15.2195H15.2195ZM15.2195 16.3902V17.561H14.0488V16.3902H15.2195ZM16.3902 15.2195V16.3902H15.2195V15.2195H16.3902ZM16.3902 14.0488V15.2195H15.2195V14.0488H16.3902ZM16.3902 12.8781V14.0488H15.2195V12.8781H16.3902ZM16.3902 11.7073V12.8781H15.2195V11.7073H16.3902ZM16.3902 10.5366V11.7073H15.2195V10.5366H16.3902ZM16.3902 7.02439V8.19512H15.2195V7.02439H16.3902ZM16.3902 5.85366V7.02439H15.2195V5.85366H16.3902ZM16.3902 4.68293V5.85366H15.2195V4.68293H16.3902ZM16.3902 3.5122V4.68293H15.2195V3.5122H16.3902ZM17.561 5.85366V7.02439H16.3902V5.85366H17.561ZM17.561 7.02439V8.19512H16.3902V7.02439H17.561ZM17.561 10.5366V11.7073H16.3902V10.5366H17.561ZM17.561 11.7073V12.8781H16.3902V11.7073H17.561ZM17.561 12.8781V14.0488H16.3902V12.8781H17.561ZM17.561 14.0488V15.2195H16.3902V14.0488H17.561ZM5.85366 25.7561V26.9268H4.68293V25.7561H5.85366ZM5.85366 26.9268V28.0976H4.68293V26.9268H5.85366ZM5.85366 24.5854V25.7561H4.68293V24.5854H5.85366ZM14.0488 8.19512V9.36586H12.8781V8.19512H14.0488ZM15.2195 8.19512V9.36586H14.0488V8.19512H15.2195ZM16.3902 8.19512V9.36586H15.2195V8.19512H16.3902ZM17.561 8.19512V9.36586H16.3902V8.19512H17.561ZM18.7317 8.19512V9.36586H17.561V8.19512H18.7317ZM18.7317 9.36586V10.5366H17.561V9.36586H18.7317ZM17.561 9.36586V10.5366H16.3902V9.36586H17.561ZM16.3902 9.36586V10.5366H15.2195V9.36586H16.3902ZM15.2195 9.36586V10.5366H14.0488V9.36586H15.2195ZM14.0488 9.36586V10.5366H12.8781V9.36586H14.0488Z" fill="#3471A3"/>
<path d="M24.6082 7.02439V8.19512H23.4375V7.02439H24.6082ZM25.779 7.02439V8.19512H24.6082V7.02439H25.779ZM26.9497 7.02439V8.19512H25.779V7.02439H26.9497ZM28.1204 7.02439V8.19512H26.9497V7.02439H28.1204ZM28.1204 8.19512V9.36586H26.9497V8.19512H28.1204ZM29.2912 8.19512V9.36586H28.1204V8.19512H29.2912ZM29.2912 9.36586V10.5366H28.1204V9.36586H29.2912ZM29.2912 7.02439V8.19512H28.1204V7.02439H29.2912ZM29.2912 10.5366V11.7073H28.1204V10.5366H29.2912ZM29.2912 11.7073V12.8781H28.1204V11.7073H29.2912ZM29.2912 12.8781V14.0488H28.1204V12.8781H29.2912ZM29.2912 14.0488V15.2195H28.1204V14.0488H29.2912ZM29.2912 15.2195V16.3902H28.1204V15.2195H29.2912ZM29.2912 16.3902V17.561H28.1204V16.3902H29.2912ZM29.2912 17.561V18.7317H28.1204V17.561H29.2912ZM29.2912 18.7317V19.9024H28.1204V18.7317H29.2912ZM29.2912 19.9024V21.0732H28.1204V19.9024H29.2912ZM28.1204 19.9024V21.0732H26.9497V19.9024H28.1204ZM26.9497 21.0732V22.2439H25.779V21.0732H26.9497ZM25.779 21.0732V22.2439H24.6082V21.0732H25.779ZM24.6082 21.0732V22.2439H23.4375V21.0732H24.6082ZM24.6082 19.9024V21.0732H23.4375V19.9024H24.6082ZM24.6082 18.7317V19.9024H23.4375V18.7317H24.6082ZM24.6082 17.561V18.7317H23.4375V17.561H24.6082ZM24.6082 16.3902V17.561H23.4375V16.3902H24.6082ZM25.779 16.3902V17.561H24.6082V16.3902H25.779ZM25.779 15.2195V16.3902H24.6082V15.2195H25.779ZM25.779 14.0488V15.2195H24.6082V14.0488H25.779ZM25.779 12.8781V14.0488H24.6082V12.8781H25.779ZM25.779 11.7073V12.8781H24.6082V11.7073H25.779ZM25.779 10.5366V11.7073H24.6082V10.5366H25.779ZM25.779 9.36586V10.5366H24.6082V9.36586H25.779ZM25.779 8.19512V9.36586H24.6082V8.19512H25.779ZM24.6082 8.19512V9.36586H23.4375V8.19512H24.6082ZM24.6082 9.36586V10.5366H23.4375V9.36586H24.6082ZM24.6082 10.5366V11.7073H23.4375V10.5366H24.6082ZM24.6082 11.7073V12.8781H23.4375V11.7073H24.6082ZM24.6082 12.8781V14.0488H23.4375V12.8781H24.6082ZM24.6082 14.0488V15.2195H23.4375V14.0488H24.6082ZM24.6082 15.2195V16.3902H23.4375V15.2195H24.6082ZM26.9497 12.8781V14.0488H25.779V12.8781H26.9497ZM26.9497 11.7073V12.8781H25.779V11.7073H26.9497ZM26.9497 10.5366V11.7073H25.779V10.5366H26.9497ZM26.9497 9.36586V10.5366H25.779V9.36586H26.9497ZM26.9497 8.19512V9.36586H25.779V8.19512H26.9497ZM28.1204 12.8781V14.0488H26.9497V12.8781H28.1204ZM28.1204 14.0488V15.2195H26.9497V14.0488H28.1204ZM28.1204 11.7073V12.8781H26.9497V11.7073H28.1204ZM28.1204 10.5366V11.7073H26.9497V10.5366H28.1204ZM28.1204 9.36586V10.5366H26.9497V9.36586H28.1204ZM26.9497 16.3902V17.561H25.779V16.3902H26.9497ZM26.9497 15.2195V16.3902H25.779V15.2195H26.9497ZM26.9497 14.0488V15.2195H25.779V14.0488H26.9497ZM28.1204 15.2195V16.3902H26.9497V15.2195H28.1204ZM28.1204 16.3902V17.561H26.9497V16.3902H28.1204ZM28.1204 17.561V18.7317H26.9497V17.561H28.1204ZM26.9497 18.7317V19.9024H25.779V18.7317H26.9497ZM26.9497 19.9024V21.0732H25.779V19.9024H26.9497ZM26.9497 17.561V18.7317H25.779V17.561H26.9497ZM25.779 17.561V18.7317H24.6082V17.561H25.779ZM25.779 18.7317V19.9024H24.6082V18.7317H25.779ZM25.779 19.9024V21.0732H24.6082V19.9024H25.779ZM28.1204 18.7317V19.9024H26.9497V18.7317H28.1204ZM26.9497 22.2439V23.4146H25.779V22.2439H26.9497ZM25.779 22.2439V23.4146H24.6082V22.2439H25.779ZM28.1204 22.2439V23.4146H26.9497V22.2439H28.1204ZM28.1204 21.0732V22.2439H26.9497V21.0732H28.1204ZM29.2912 21.0732V22.2439H28.1204V21.0732H29.2912ZM30.4619 21.0732V22.2439H29.2912V21.0732H30.4619ZM30.4619 22.2439V23.4146H29.2912V22.2439H30.4619ZM29.2912 22.2439V23.4146H28.1204V22.2439H29.2912ZM31.6326 22.2439V23.4146H30.4619V22.2439H31.6326ZM26.9497 23.4146V24.5854H25.779V23.4146H26.9497ZM28.1204 23.4146V24.5854H26.9497V23.4146H28.1204ZM29.2912 23.4146V24.5854H28.1204V23.4146H29.2912ZM30.4619 23.4146V24.5854H29.2912V23.4146H30.4619ZM31.6326 23.4146V24.5854H30.4619V23.4146H31.6326ZM32.8034 23.4146V24.5854H31.6326V23.4146H32.8034ZM33.9741 23.4146V24.5854H32.8034V23.4146H33.9741ZM35.1448 23.4146V24.5854H33.9741V23.4146H35.1448ZM36.3156 23.4146V24.5854H35.1448V23.4146H36.3156ZM37.4863 23.4146V24.5854H36.3156V23.4146H37.4863ZM38.657 23.4146V24.5854H37.4863V23.4146H38.657ZM39.8277 23.4146V24.5854H38.657V23.4146H39.8277ZM38.657 22.2439V23.4146H37.4863V22.2439H38.657ZM37.4863 22.2439V23.4146H36.3156V22.2439H37.4863ZM36.3156 22.2439V23.4146H35.1448V22.2439H36.3156ZM35.1448 22.2439V23.4146H33.9741V22.2439H35.1448ZM36.3156 21.0732V22.2439H35.1448V21.0732H36.3156ZM37.4863 21.0732V22.2439H36.3156V21.0732H37.4863ZM38.657 21.0732V22.2439H37.4863V21.0732H38.657ZM39.8277 21.0732V22.2439H38.657V21.0732H39.8277ZM40.9985 21.0732V22.2439H39.8277V21.0732H40.9985ZM40.9985 22.2439V23.4146H39.8277V22.2439H40.9985ZM39.8277 22.2439V23.4146H38.657V22.2439H39.8277ZM42.1692 21.0732V22.2439H40.9985V21.0732H42.1692ZM31.6326 28.0976V29.2683H30.4619V28.0976H31.6326ZM31.6326 26.9268V28.0976H30.4619V26.9268H31.6326ZM31.6326 25.7561V26.9268H30.4619V25.7561H31.6326ZM32.8034 25.7561V26.9268H31.6326V25.7561H32.8034ZM32.8034 24.5854V25.7561H31.6326V24.5854H32.8034ZM33.9741 24.5854V25.7561H32.8034V24.5854H33.9741ZM35.1448 24.5854V25.7561H33.9741V24.5854H35.1448ZM35.1448 25.7561V26.9268H33.9741V25.7561H35.1448ZM35.1448 26.9268V28.0976H33.9741V26.9268H35.1448ZM35.1448 28.0976V29.2683H33.9741V28.0976H35.1448ZM33.9741 28.0976V29.2683H32.8034V28.0976H33.9741ZM32.8034 28.0976V29.2683H31.6326V28.0976H32.8034ZM32.8034 26.9268V28.0976H31.6326V26.9268H32.8034ZM33.9741 25.7561V26.9268H32.8034V25.7561H33.9741ZM33.9741 26.9268V28.0976H32.8034V26.9268H33.9741ZM36.3156 25.7561V26.9268H35.1448V25.7561H36.3156ZM36.3156 24.5854V25.7561H35.1448V24.5854H36.3156ZM37.4863 24.5854V25.7561H36.3156V24.5854H37.4863ZM38.657 24.5854V25.7561H37.4863V24.5854H38.657ZM37.4863 25.7561V26.9268H36.3156V25.7561H37.4863ZM36.3156 26.9268V28.0976H35.1448V26.9268H36.3156ZM28.1204 24.5854V25.7561H26.9497V24.5854H28.1204ZM29.2912 24.5854V25.7561H28.1204V24.5854H29.2912ZM29.2912 25.7561V26.9268H28.1204V25.7561H29.2912ZM30.4619 25.7561V26.9268H29.2912V25.7561H30.4619ZM30.4619 26.9268V28.0976H29.2912V26.9268H30.4619ZM31.6326 24.5854V25.7561H30.4619V24.5854H31.6326ZM30.4619 24.5854V25.7561H29.2912V24.5854H30.4619ZM37.4863 19.9024V21.0732H36.3156V19.9024H37.4863ZM37.4863 18.7317V19.9024H36.3156V18.7317H37.4863ZM37.4863 17.561V18.7317H36.3156V17.561H37.4863ZM37.4863 16.3902V17.561H36.3156V16.3902H37.4863ZM38.657 16.3902V17.561H37.4863V16.3902H38.657ZM39.8277 16.3902V17.561H38.657V16.3902H39.8277ZM40.9985 16.3902V17.561H39.8277V16.3902H40.9985ZM42.1692 16.3902V17.561H40.9985V16.3902H42.1692ZM42.1692 17.561V18.7317H40.9985V17.561H42.1692ZM42.1692 18.7317V19.9024H40.9985V18.7317H42.1692ZM42.1692 19.9024V21.0732H40.9985V19.9024H42.1692ZM40.9985 19.9024V21.0732H39.8277V19.9024H40.9985ZM39.8277 19.9024V21.0732H38.657V19.9024H39.8277ZM38.657 19.9024V21.0732H37.4863V19.9024H38.657ZM39.8277 18.7317V19.9024H38.657V18.7317H39.8277ZM40.9985 18.7317V19.9024H39.8277V18.7317H40.9985ZM40.9985 17.561V18.7317H39.8277V17.561H40.9985ZM39.8277 17.561V18.7317H38.657V17.561H39.8277ZM38.657 17.561V18.7317H37.4863V17.561H38.657ZM38.657 18.7317V19.9024H37.4863V18.7317H38.657ZM37.4863 15.2195V16.3902H36.3156V15.2195H37.4863ZM37.4863 14.0488V15.2195H36.3156V14.0488H37.4863ZM37.4863 12.8781V14.0488H36.3156V12.8781H37.4863ZM37.4863 11.7073V12.8781H36.3156V11.7073H37.4863ZM37.4863 10.5366V11.7073H36.3156V10.5366H37.4863ZM37.4863 9.36586V10.5366H36.3156V9.36586H37.4863ZM37.4863 8.19512V9.36586H36.3156V8.19512H37.4863ZM37.4863 7.02439V8.19512H36.3156V7.02439H37.4863ZM38.657 8.19512V9.36586H37.4863V8.19512H38.657ZM38.657 7.02439V8.19512H37.4863V7.02439H38.657ZM39.8277 7.02439V8.19512H38.657V7.02439H39.8277ZM40.9985 7.02439V8.19512H39.8277V7.02439H40.9985ZM40.9985 8.19512V9.36586H39.8277V8.19512H40.9985ZM40.9985 9.36586V10.5366H39.8277V9.36586H40.9985ZM42.1692 9.36586V10.5366H40.9985V9.36586H42.1692ZM42.1692 10.5366V11.7073H40.9985V10.5366H42.1692ZM42.1692 11.7073V12.8781H40.9985V11.7073H42.1692ZM42.1692 12.8781V14.0488H40.9985V12.8781H42.1692ZM42.1692 14.0488V15.2195H40.9985V14.0488H42.1692ZM42.1692 15.2195V16.3902H40.9985V15.2195H42.1692ZM42.1692 8.19512V9.36586H40.9985V8.19512H42.1692ZM42.1692 7.02439V8.19512H40.9985V7.02439H42.1692ZM39.8277 8.19512V9.36586H38.657V8.19512H39.8277ZM39.8277 9.36586V10.5366H38.657V9.36586H39.8277ZM39.8277 10.5366V11.7073H38.657V10.5366H39.8277ZM39.8277 11.7073V12.8781H38.657V11.7073H39.8277ZM39.8277 12.8781V14.0488H38.657V12.8781H39.8277ZM39.8277 14.0488V15.2195H38.657V14.0488H39.8277ZM38.657 14.0488V15.2195H37.4863V14.0488H38.657ZM38.657 15.2195V16.3902H37.4863V15.2195H38.657ZM38.657 12.8781V14.0488H37.4863V12.8781H38.657ZM38.657 11.7073V12.8781H37.4863V11.7073H38.657ZM38.657 10.5366V11.7073H37.4863V10.5366H38.657ZM38.657 9.36586V10.5366H37.4863V9.36586H38.657ZM40.9985 10.5366V11.7073H39.8277V10.5366H40.9985ZM40.9985 11.7073V12.8781H39.8277V11.7073H40.9985ZM40.9985 12.8781V14.0488H39.8277V12.8781H40.9985ZM40.9985 14.0488V15.2195H39.8277V14.0488H40.9985ZM40.9985 15.2195V16.3902H39.8277V15.2195H40.9985ZM39.8277 15.2195V16.3902H38.657V15.2195H39.8277ZM29.2912 28.0976V29.2683H28.1204V28.0976H29.2912ZM30.4619 28.0976V29.2683H29.2912V28.0976H30.4619ZM31.6326 29.2683V30.439H30.4619V29.2683H31.6326ZM32.8034 29.2683V30.439H31.6326V29.2683H32.8034ZM33.9741 29.2683V30.439H32.8034V29.2683H33.9741ZM30.4619 29.2683V30.439H29.2912V29.2683H30.4619ZM29.2912 29.2683V30.439H28.1204V29.2683H29.2912ZM28.1204 29.2683V30.439H26.9497V29.2683H28.1204ZM28.1204 30.439V31.6098H26.9497V30.439H28.1204ZM26.9497 30.439V31.6098H25.779V30.439H26.9497ZM26.9497 31.6098V32.7805H25.779V31.6098H26.9497ZM25.779 31.6098V32.7805H24.6082V31.6098H25.779ZM25.779 32.7805V33.9512H24.6082V32.7805H25.779ZM25.779 33.9512V35.122H24.6082V33.9512H25.779ZM25.779 35.122V36.2927H24.6082V35.122H25.779ZM26.9497 35.122V36.2927H25.779V35.122H26.9497ZM28.1204 35.122V36.2927H26.9497V35.122H28.1204ZM28.1204 33.9512V35.122H26.9497V33.9512H28.1204ZM28.1204 32.7805V33.9512H26.9497V32.7805H28.1204ZM26.9497 32.7805V33.9512H25.779V32.7805H26.9497ZM26.9497 33.9512V35.122H25.779V33.9512H26.9497ZM29.2912 32.7805V33.9512H28.1204V32.7805H29.2912ZM29.2912 33.9512V35.122H28.1204V33.9512H29.2912ZM30.4619 32.7805V33.9512H29.2912V32.7805H30.4619ZM30.4619 31.6098V32.7805H29.2912V31.6098H30.4619ZM31.6326 31.6098V32.7805H30.4619V31.6098H31.6326ZM31.6326 30.439V31.6098H30.4619V30.439H31.6326ZM32.8034 30.439V31.6098H31.6326V30.439H32.8034ZM30.4619 30.439V31.6098H29.2912V30.439H30.4619ZM29.2912 30.439V31.6098H28.1204V30.439H29.2912ZM29.2912 31.6098V32.7805H28.1204V31.6098H29.2912ZM28.1204 31.6098V32.7805H26.9497V31.6098H28.1204Z" fill="#FCD046"/>
<path d="M48.0457 23.4146V24.5854H46.875V23.4146H48.0457ZM48.0457 22.2439V23.4146H46.875V22.2439H48.0457ZM48.0457 21.0732V22.2439H46.875V21.0732H48.0457ZM48.0457 19.9024V21.0732H46.875V19.9024H48.0457ZM48.0457 18.7317V19.9024H46.875V18.7317H48.0457ZM48.0457 17.561V18.7317H46.875V17.561H48.0457ZM48.0457 16.3902V17.561H46.875V16.3902H48.0457ZM48.0457 15.2195V16.3902H46.875V15.2195H48.0457ZM48.0457 14.0488V15.2195H46.875V14.0488H48.0457ZM48.0457 12.8781V14.0488H46.875V12.8781H48.0457ZM48.0457 11.7073V12.8781H46.875V11.7073H48.0457ZM49.2165 11.7073V12.8781H48.0457V11.7073H49.2165ZM49.2165 12.8781V14.0488H48.0457V12.8781H49.2165ZM49.2165 14.0488V15.2195H48.0457V14.0488H49.2165ZM49.2165 15.2195V16.3902H48.0457V15.2195H49.2165ZM49.2165 16.3902V17.561H48.0457V16.3902H49.2165ZM49.2165 17.561V18.7317H48.0457V17.561H49.2165ZM49.2165 18.7317V19.9024H48.0457V18.7317H49.2165ZM50.3872 19.9024V21.0732H49.2165V19.9024H50.3872ZM50.3872 21.0732V22.2439H49.2165V21.0732H50.3872ZM50.3872 22.2439V23.4146H49.2165V22.2439H50.3872ZM50.3872 23.4146V24.5854H49.2165V23.4146H50.3872ZM50.3872 24.5854V25.7561H49.2165V24.5854H50.3872ZM50.3872 25.7561V26.9268H49.2165V25.7561H50.3872ZM50.3872 26.9268V28.0976H49.2165V26.9268H50.3872ZM52.7287 28.0976V29.2683H51.5579V28.0976H52.7287ZM52.7287 26.9268V28.0976H51.5579V26.9268H52.7287ZM52.7287 25.7561V26.9268H51.5579V25.7561H52.7287ZM52.7287 24.5854V25.7561H51.5579V24.5854H52.7287ZM52.7287 23.4146V24.5854H51.5579V23.4146H52.7287ZM52.7287 22.2439V23.4146H51.5579V22.2439H52.7287ZM52.7287 21.0732V22.2439H51.5579V21.0732H52.7287ZM52.7287 19.9024V21.0732H51.5579V19.9024H52.7287ZM51.5579 19.9024V21.0732H50.3872V19.9024H51.5579ZM51.5579 18.7317V19.9024H50.3872V18.7317H51.5579ZM51.5579 21.0732V22.2439H50.3872V21.0732H51.5579ZM51.5579 22.2439V23.4146H50.3872V22.2439H51.5579ZM51.5579 23.4146V24.5854H50.3872V23.4146H51.5579ZM51.5579 24.5854V25.7561H50.3872V24.5854H51.5579ZM51.5579 25.7561V26.9268H50.3872V25.7561H51.5579ZM51.5579 26.9268V28.0976H50.3872V26.9268H51.5579ZM49.2165 25.7561V26.9268H48.0457V25.7561H49.2165ZM49.2165 24.5854V25.7561H48.0457V24.5854H49.2165ZM49.2165 23.4146V24.5854H48.0457V23.4146H49.2165ZM49.2165 22.2439V23.4146H48.0457V22.2439H49.2165ZM49.2165 21.0732V22.2439H48.0457V21.0732H49.2165ZM49.2165 19.9024V21.0732H48.0457V19.9024H49.2165ZM48.0457 10.5366V11.7073H46.875V10.5366H48.0457ZM51.5579 10.5366V11.7073H50.3872V10.5366H51.5579ZM51.5579 11.7073V12.8781H50.3872V11.7073H51.5579ZM51.5579 12.8781V14.0488H50.3872V12.8781H51.5579ZM51.5579 14.0488V15.2195H50.3872V14.0488H51.5579ZM51.5579 15.2195V16.3902H50.3872V15.2195H51.5579ZM52.7287 16.3902V17.561H51.5579V16.3902H52.7287ZM52.7287 17.561V18.7317H51.5579V17.561H52.7287ZM52.7287 18.7317V19.9024H51.5579V18.7317H52.7287ZM52.7287 15.2195V16.3902H51.5579V15.2195H52.7287ZM52.7287 14.0488V15.2195H51.5579V14.0488H52.7287ZM52.7287 12.8781V14.0488H51.5579V12.8781H52.7287ZM52.7287 11.7073V12.8781H51.5579V11.7073H52.7287ZM52.7287 10.5366V11.7073H51.5579V10.5366H52.7287ZM49.2165 10.5366V11.7073H48.0457V10.5366H49.2165ZM50.3872 10.5366V11.7073H49.2165V10.5366H50.3872ZM50.3872 11.7073V12.8781H49.2165V11.7073H50.3872ZM50.3872 12.8781V14.0488H49.2165V12.8781H50.3872ZM50.3872 14.0488V15.2195H49.2165V14.0488H50.3872ZM50.3872 15.2195V16.3902H49.2165V15.2195H50.3872ZM50.3872 16.3902V17.561H49.2165V16.3902H50.3872ZM50.3872 17.561V18.7317H49.2165V17.561H50.3872ZM50.3872 18.7317V19.9024H49.2165V18.7317H50.3872ZM51.5579 17.561V18.7317H50.3872V17.561H51.5579ZM51.5579 16.3902V17.561H50.3872V16.3902H51.5579ZM62.0945 28.0976V29.2683H60.9238V28.0976H62.0945ZM62.0945 26.9268V28.0976H60.9238V26.9268H62.0945ZM62.0945 25.7561V26.9268H60.9238V25.7561H62.0945ZM62.0945 24.5854V25.7561H60.9238V24.5854H62.0945ZM62.0945 23.4146V24.5854H60.9238V23.4146H62.0945ZM62.0945 22.2439V23.4146H60.9238V22.2439H62.0945ZM62.0945 21.0732V22.2439H60.9238V21.0732H62.0945ZM64.436 21.0732V22.2439H63.2652V21.0732H64.436ZM64.436 22.2439V23.4146H63.2652V22.2439H64.436ZM64.436 23.4146V24.5854H63.2652V23.4146H64.436ZM64.436 24.5854V25.7561H63.2652V24.5854H64.436ZM64.436 25.7561V26.9268H63.2652V25.7561H64.436ZM64.436 26.9268V28.0976H63.2652V26.9268H64.436ZM66.7774 23.4146V24.5854H65.6067V23.4146H66.7774ZM66.7774 22.2439V23.4146H65.6067V22.2439H66.7774ZM66.7774 21.0732V22.2439H65.6067V21.0732H66.7774ZM65.6067 21.0732V22.2439H64.436V21.0732H65.6067ZM65.6067 22.2439V23.4146H64.436V22.2439H65.6067ZM65.6067 23.4146V24.5854H64.436V23.4146H65.6067ZM65.6067 24.5854V25.7561H64.436V24.5854H65.6067ZM65.6067 25.7561V26.9268H64.436V25.7561H65.6067ZM63.2652 26.9268V28.0976H62.0945V26.9268H63.2652ZM63.2652 25.7561V26.9268H62.0945V25.7561H63.2652ZM63.2652 24.5854V25.7561H62.0945V24.5854H63.2652ZM63.2652 23.4146V24.5854H62.0945V23.4146H63.2652ZM63.2652 22.2439V23.4146H62.0945V22.2439H63.2652ZM63.2652 21.0732V22.2439H62.0945V21.0732H63.2652ZM53.8994 28.0976V29.2683H52.7287V28.0976H53.8994ZM55.0701 28.0976V29.2683H53.8994V28.0976H55.0701ZM56.2409 28.0976V29.2683H55.0701V28.0976H56.2409ZM57.4116 28.0976V29.2683H56.2409V28.0976H57.4116ZM58.5823 28.0976V29.2683H57.4116V28.0976H58.5823ZM60.9238 28.0976V29.2683H59.7531V28.0976H60.9238ZM60.9238 26.9268V28.0976H59.7531V26.9268H60.9238ZM58.5823 26.9268V28.0976H57.4116V26.9268H58.5823ZM57.4116 26.9268V28.0976H56.2409V26.9268H57.4116ZM56.2409 26.9268V28.0976H55.0701V26.9268H56.2409ZM55.0701 26.9268V28.0976H53.8994V26.9268H55.0701ZM53.8994 26.9268V28.0976H52.7287V26.9268H53.8994ZM53.8994 25.7561V26.9268H52.7287V25.7561H53.8994ZM55.0701 25.7561V26.9268H53.8994V25.7561H55.0701ZM56.2409 25.7561V26.9268H55.0701V25.7561H56.2409ZM57.4116 25.7561V26.9268H56.2409V25.7561H57.4116ZM58.5823 25.7561V26.9268H57.4116V25.7561H58.5823ZM60.9238 25.7561V26.9268H59.7531V25.7561H60.9238ZM60.9238 24.5854V25.7561H59.7531V24.5854H60.9238ZM58.5823 24.5854V25.7561H57.4116V24.5854H58.5823ZM57.4116 24.5854V25.7561H56.2409V24.5854H57.4116ZM56.2409 24.5854V25.7561H55.0701V24.5854H56.2409ZM55.0701 24.5854V25.7561H53.8994V24.5854H55.0701ZM53.8994 24.5854V25.7561H52.7287V24.5854H53.8994ZM53.8994 23.4146V24.5854H52.7287V23.4146H53.8994ZM60.9238 23.4146V24.5854H59.7531V23.4146H60.9238ZM65.6067 5.85366V4.68293H66.7774V5.85366H65.6067ZM65.6067 7.02439V5.85366H66.7774V7.02439H65.6067ZM65.6067 8.19512V7.02439H66.7774V8.19512H65.6067ZM63.2652 8.19512V7.02439H64.436V8.19512H63.2652ZM63.2652 7.02439V5.85366H64.436V7.02439H63.2652ZM63.2652 5.85366V4.68293H64.436V5.85366H63.2652ZM63.2652 4.68293V3.5122H64.436V4.68293H63.2652ZM63.2652 3.5122V2.34147H64.436V3.5122H63.2652ZM63.2652 2.34147V1.17074H64.436V2.34147H63.2652ZM60.9238 1.17074V1.90735e-06H62.0945V1.17074H60.9238ZM60.9238 2.34147V1.17074H62.0945V2.34147H60.9238ZM60.9238 3.5122V2.34147H62.0945V3.5122H60.9238ZM60.9238 4.68293V3.5122H62.0945V4.68293H60.9238ZM60.9238 5.85366V4.68293H62.0945V5.85366H60.9238ZM60.9238 7.02439V5.85366H62.0945V7.02439H60.9238ZM60.9238 8.19512V7.02439H62.0945V8.19512H60.9238ZM62.0945 8.19512V7.02439H63.2652V8.19512H62.0945ZM62.0945 7.02439V5.85366H63.2652V7.02439H62.0945ZM62.0945 5.85366V4.68293H63.2652V5.85366H62.0945ZM62.0945 4.68293V3.5122H63.2652V4.68293H62.0945ZM62.0945 3.5122V2.34147H63.2652V3.5122H62.0945ZM62.0945 2.34147V1.17074H63.2652V2.34147H62.0945ZM64.436 3.5122V2.34147H65.6067V3.5122H64.436ZM64.436 4.68293V3.5122H65.6067V4.68293H64.436ZM64.436 5.85366V4.68293H65.6067V5.85366H64.436ZM64.436 7.02439V5.85366H65.6067V7.02439H64.436ZM64.436 8.19512V7.02439H65.6067V8.19512H64.436ZM51.5579 1.17074V1.90735e-06H52.7287V1.17074H51.5579ZM51.5579 2.34147V1.17074H52.7287V2.34147H51.5579ZM51.5579 3.5122V2.34147H52.7287V3.5122H51.5579ZM51.5579 4.68293V3.5122H52.7287V4.68293H51.5579ZM51.5579 5.85366V4.68293H52.7287V5.85366H51.5579ZM51.5579 7.02439V5.85366H52.7287V7.02439H51.5579ZM51.5579 8.19512V7.02439H52.7287V8.19512H51.5579ZM49.2165 8.19512V7.02439H50.3872V8.19512H49.2165ZM49.2165 7.02439V5.85366H50.3872V7.02439H49.2165ZM49.2165 5.85366V4.68293H50.3872V5.85366H49.2165ZM49.2165 4.68293V3.5122H50.3872V4.68293H49.2165ZM49.2165 3.5122V2.34147H50.3872V3.5122H49.2165ZM49.2165 2.34147V1.17074H50.3872V2.34147H49.2165ZM46.875 5.85366V4.68293H48.0457V5.85366H46.875ZM46.875 7.02439V5.85366H48.0457V7.02439H46.875ZM46.875 8.19512V7.02439H48.0457V8.19512H46.875ZM48.0457 8.19512V7.02439H49.2165V8.19512H48.0457ZM48.0457 7.02439V5.85366H49.2165V7.02439H48.0457ZM48.0457 5.85366V4.68293H49.2165V5.85366H48.0457ZM48.0457 4.68293V3.5122H49.2165V4.68293H48.0457ZM48.0457 3.5122V2.34147H49.2165V3.5122H48.0457ZM50.3872 2.34147V1.17074H51.5579V2.34147H50.3872ZM50.3872 3.5122V2.34147H51.5579V3.5122H50.3872ZM50.3872 4.68293V3.5122H51.5579V4.68293H50.3872ZM50.3872 5.85366V4.68293H51.5579V5.85366H50.3872ZM50.3872 7.02439V5.85366H51.5579V7.02439H50.3872ZM50.3872 8.19512V7.02439H51.5579V8.19512H50.3872ZM59.7531 1.17074V1.90735e-06H60.9238V1.17074H59.7531ZM57.4116 1.17074V1.90735e-06H58.5823V1.17074H57.4116ZM56.2409 1.17074V1.90735e-06H57.4116V1.17074H56.2409ZM55.0701 1.17074V1.90735e-06H56.2409V1.17074H55.0701ZM53.8994 1.17074V1.90735e-06H55.0701V1.17074H53.8994ZM52.7287 1.17074V1.90735e-06H53.8994V1.17074H52.7287ZM52.7287 2.34147V1.17074H53.8994V2.34147H52.7287ZM53.8994 2.34147V1.17074H55.0701V2.34147H53.8994ZM55.0701 2.34147V1.17074H56.2409V2.34147H55.0701ZM56.2409 2.34147V1.17074H57.4116V2.34147H56.2409ZM57.4116 2.34147V1.17074H58.5823V2.34147H57.4116ZM59.7531 2.34147V1.17074H60.9238V2.34147H59.7531ZM59.7531 3.5122V2.34147H60.9238V3.5122H59.7531ZM57.4116 3.5122V2.34147H58.5823V3.5122H57.4116ZM56.2409 3.5122V2.34147H57.4116V3.5122H56.2409ZM55.0701 3.5122V2.34147H56.2409V3.5122H55.0701ZM53.8994 3.5122V2.34147H55.0701V3.5122H53.8994ZM52.7287 3.5122V2.34147H53.8994V3.5122H52.7287ZM52.7287 4.68293V3.5122H53.8994V4.68293H52.7287ZM53.8994 4.68293V3.5122H55.0701V4.68293H53.8994ZM55.0701 4.68293V3.5122H56.2409V4.68293H55.0701ZM56.2409 4.68293V3.5122H57.4116V4.68293H56.2409ZM57.4116 4.68293V3.5122H58.5823V4.68293H57.4116ZM59.7531 4.68293V3.5122H60.9238V4.68293H59.7531ZM59.7531 5.85366V4.68293H60.9238V5.85366H59.7531ZM52.7287 5.85366V4.68293H53.8994V5.85366H52.7287ZM48.0457 9.36586V10.5366H46.875V9.36586H48.0457ZM49.2165 9.36586V10.5366H48.0457V9.36586H49.2165ZM48.0457 8.19512V9.36586H46.875V8.19512H48.0457ZM51.5579 8.19512V9.36586H50.3872V8.19512H51.5579ZM51.5579 9.36586V10.5366H50.3872V9.36586H51.5579ZM52.7287 9.36586V10.5366H51.5579V9.36586H52.7287ZM52.7287 8.19512V9.36586H51.5579V8.19512H52.7287ZM49.2165 8.19512V9.36586H48.0457V8.19512H49.2165ZM50.3872 8.19512V9.36586H49.2165V8.19512H50.3872ZM50.3872 9.36586V10.5366H49.2165V9.36586H50.3872ZM55.0701 23.4146V24.5854H53.8994V23.4146H55.0701ZM56.2409 23.4146V24.5854H55.0701V23.4146H56.2409ZM57.4116 23.4146V24.5854H56.2409V23.4146H57.4116ZM58.5823 23.4146V24.5854H57.4116V23.4146H58.5823ZM60.9238 22.2439V23.4146H59.7531V22.2439H60.9238ZM53.8994 22.2439V23.4146H52.7287V22.2439H53.8994ZM62.0945 19.9024V21.0732H60.9238V19.9024H62.0945ZM63.2652 19.9024V21.0732H62.0945V19.9024H63.2652ZM64.436 19.9024V21.0732H63.2652V19.9024H64.436ZM65.6067 19.9024V21.0732H64.436V19.9024H65.6067ZM66.7774 19.9024V21.0732H65.6067V19.9024H66.7774ZM53.8994 5.85366V7.02439H52.7287V5.85366H53.8994ZM55.0701 4.68293V5.85366H53.8994V4.68293H55.0701ZM56.2409 4.68293V5.85366H55.0701V4.68293H56.2409ZM57.4116 4.68293V5.85366H56.2409V4.68293H57.4116ZM58.5823 4.68293V5.85366H57.4116V4.68293H58.5823ZM60.9238 5.85366V7.02439H59.7531V5.85366H60.9238ZM62.0945 8.19512V9.36586H60.9238V8.19512H62.0945ZM63.2652 8.19512V9.36586H62.0945V8.19512H63.2652ZM64.436 8.19512V9.36586H63.2652V8.19512H64.436ZM65.6067 8.19512V9.36586H64.436V8.19512H65.6067ZM66.7774 8.19512V9.36586H65.6067V8.19512H66.7774ZM59.7531 1.90735e-06V1.17074H58.5823V1.90735e-06H59.7531ZM59.7531 1.17074V2.34147H58.5823V1.17074H59.7531ZM59.7531 2.34147V3.5122H58.5823V2.34147H59.7531ZM59.7531 3.5122V4.68293H58.5823V3.5122H59.7531ZM59.7531 4.68293V5.85366H58.5823V4.68293H59.7531ZM59.7531 23.4146V24.5854H58.5823V23.4146H59.7531ZM59.7531 24.5854V25.7561H58.5823V24.5854H59.7531ZM59.7531 25.7561V26.9268H58.5823V25.7561H59.7531ZM59.7531 26.9268V28.0976H58.5823V26.9268H59.7531ZM59.7531 28.0976V29.2683H58.5823V28.0976H59.7531ZM72.6082 28.0976V29.2683H71.4375V28.0976H72.6082ZM72.6082 26.9268V28.0976H71.4375V26.9268H72.6082ZM72.6082 25.7561V26.9268H71.4375V25.7561H72.6082ZM72.6082 24.5854V25.7561H71.4375V24.5854H72.6082ZM72.6082 23.4146V24.5854H71.4375V23.4146H72.6082ZM72.6082 22.2439V23.4146H71.4375V22.2439H72.6082ZM72.6082 21.0732V22.2439H71.4375V21.0732H72.6082ZM72.6082 19.9024V21.0732H71.4375V19.9024H72.6082ZM72.6082 18.7317V19.9024H71.4375V18.7317H72.6082ZM72.6082 17.561V18.7317H71.4375V17.561H72.6082ZM72.6082 16.3902V17.561H71.4375V16.3902H72.6082ZM72.6082 15.2195V16.3902H71.4375V15.2195H72.6082ZM72.6082 14.0488V15.2195H71.4375V14.0488H72.6082ZM72.6082 12.8781V14.0488H71.4375V12.8781H72.6082ZM72.6082 11.7073V12.8781H71.4375V11.7073H72.6082ZM73.779 11.7073V12.8781H72.6082V11.7073H73.779ZM73.779 12.8781V14.0488H72.6082V12.8781H73.779ZM73.779 14.0488V15.2195H72.6082V14.0488H73.779ZM73.779 15.2195V16.3902H72.6082V15.2195H73.779ZM73.779 16.3902V17.561H72.6082V16.3902H73.779ZM73.779 17.561V18.7317H72.6082V17.561H73.779ZM73.779 18.7317V19.9024H72.6082V18.7317H73.779ZM74.9497 19.9024V21.0732H73.779V19.9024H74.9497ZM74.9497 21.0732V22.2439H73.779V21.0732H74.9497ZM74.9497 22.2439V23.4146H73.779V22.2439H74.9497ZM74.9497 23.4146V24.5854H73.779V23.4146H74.9497ZM74.9497 24.5854V25.7561H73.779V24.5854H74.9497ZM74.9497 25.7561V26.9268H73.779V25.7561H74.9497ZM74.9497 26.9268V28.0976H73.779V26.9268H74.9497ZM74.9497 28.0976V29.2683H73.779V28.0976H74.9497ZM76.1204 28.0976V29.2683H74.9497V28.0976H76.1204ZM77.2912 28.0976V29.2683H76.1204V28.0976H77.2912ZM77.2912 26.9268V28.0976H76.1204V26.9268H77.2912ZM77.2912 25.7561V26.9268H76.1204V25.7561H77.2912ZM77.2912 24.5854V25.7561H76.1204V24.5854H77.2912ZM77.2912 23.4146V24.5854H76.1204V23.4146H77.2912ZM77.2912 22.2439V23.4146H76.1204V22.2439H77.2912ZM77.2912 21.0732V22.2439H76.1204V21.0732H77.2912ZM77.2912 19.9024V21.0732H76.1204V19.9024H77.2912ZM76.1204 19.9024V21.0732H74.9497V19.9024H76.1204ZM76.1204 18.7317V19.9024H74.9497V18.7317H76.1204ZM76.1204 21.0732V22.2439H74.9497V21.0732H76.1204ZM76.1204 22.2439V23.4146H74.9497V22.2439H76.1204ZM76.1204 23.4146V24.5854H74.9497V23.4146H76.1204ZM76.1204 24.5854V25.7561H74.9497V24.5854H76.1204ZM76.1204 25.7561V26.9268H74.9497V25.7561H76.1204ZM76.1204 26.9268V28.0976H74.9497V26.9268H76.1204ZM73.779 28.0976V29.2683H72.6082V28.0976H73.779ZM73.779 26.9268V28.0976H72.6082V26.9268H73.779ZM73.779 25.7561V26.9268H72.6082V25.7561H73.779ZM73.779 24.5854V25.7561H72.6082V24.5854H73.779ZM73.779 23.4146V24.5854H72.6082V23.4146H73.779ZM73.779 22.2439V23.4146H72.6082V22.2439H73.779ZM73.779 21.0732V22.2439H72.6082V21.0732H73.779ZM73.779 19.9024V21.0732H72.6082V19.9024H73.779ZM72.6082 1.90735e-06V1.17074H71.4375V1.90735e-06H72.6082ZM72.6082 1.17074V2.34147H71.4375V1.17074H72.6082ZM72.6082 2.34147V3.5122H71.4375V2.34147H72.6082ZM72.6082 3.5122V4.68293H71.4375V3.5122H72.6082ZM72.6082 4.68293V5.85366H71.4375V4.68293H72.6082ZM72.6082 5.85366V7.02439H71.4375V5.85366H72.6082ZM72.6082 7.02439V8.19512H71.4375V7.02439H72.6082ZM72.6082 8.19512V9.36586H71.4375V8.19512H72.6082ZM72.6082 9.36586V10.5366H71.4375V9.36586H72.6082ZM72.6082 10.5366V11.7073H71.4375V10.5366H72.6082ZM76.1204 1.90735e-06V1.17074H74.9497V1.90735e-06H76.1204ZM76.1204 1.17074V2.34147H74.9497V1.17074H76.1204ZM76.1204 2.34147V3.5122H74.9497V2.34147H76.1204ZM76.1204 3.5122V4.68293H74.9497V3.5122H76.1204ZM76.1204 4.68293V5.85366H74.9497V4.68293H76.1204ZM76.1204 5.85366V7.02439H74.9497V5.85366H76.1204ZM76.1204 8.19512V9.36586H74.9497V8.19512H76.1204ZM76.1204 9.36586V10.5366H74.9497V9.36586H76.1204ZM76.1204 10.5366V11.7073H74.9497V10.5366H76.1204ZM76.1204 11.7073V12.8781H74.9497V11.7073H76.1204ZM76.1204 12.8781V14.0488H74.9497V12.8781H76.1204ZM76.1204 14.0488V15.2195H74.9497V14.0488H76.1204ZM76.1204 15.2195V16.3902H74.9497V15.2195H76.1204ZM77.2912 16.3902V17.561H76.1204V16.3902H77.2912ZM77.2912 17.561V18.7317H76.1204V17.561H77.2912ZM77.2912 18.7317V19.9024H76.1204V18.7317H77.2912ZM77.2912 15.2195V16.3902H76.1204V15.2195H77.2912ZM77.2912 14.0488V15.2195H76.1204V14.0488H77.2912ZM77.2912 12.8781V14.0488H76.1204V12.8781H77.2912ZM77.2912 11.7073V12.8781H76.1204V11.7073H77.2912ZM77.2912 10.5366V11.7073H76.1204V10.5366H77.2912ZM77.2912 9.36586V10.5366H76.1204V9.36586H77.2912ZM77.2912 8.19512V9.36586H76.1204V8.19512H77.2912ZM77.2912 7.02439V8.19512H76.1204V7.02439H77.2912ZM77.2912 5.85366V7.02439H76.1204V5.85366H77.2912ZM77.2912 4.68293V5.85366H76.1204V4.68293H77.2912ZM76.1204 7.02439V8.19512H74.9497V7.02439H76.1204ZM77.2912 3.5122V4.68293H76.1204V3.5122H77.2912ZM77.2912 2.34147V3.5122H76.1204V2.34147H77.2912ZM77.2912 1.17074V2.34147H76.1204V1.17074H77.2912ZM77.2912 1.90735e-06V1.17074H76.1204V1.90735e-06H77.2912ZM74.9497 1.90735e-06V1.17074H73.779V1.90735e-06H74.9497ZM73.779 1.90735e-06V1.17074H72.6082V1.90735e-06H73.779ZM73.779 1.17074V2.34147H72.6082V1.17074H73.779ZM74.9497 1.17074V2.34147H73.779V1.17074H74.9497ZM74.9497 2.34147V3.5122H73.779V2.34147H74.9497ZM74.9497 3.5122V4.68293H73.779V3.5122H74.9497ZM74.9497 4.68293V5.85366H73.779V4.68293H74.9497ZM74.9497 5.85366V7.02439H73.779V5.85366H74.9497ZM74.9497 7.02439V8.19512H73.779V7.02439H74.9497ZM74.9497 8.19512V9.36586H73.779V8.19512H74.9497ZM73.779 9.36586V10.5366H72.6082V9.36586H73.779ZM73.779 10.5366V11.7073H72.6082V10.5366H73.779ZM73.779 8.19512V9.36586H72.6082V8.19512H73.779ZM73.779 7.02439V8.19512H72.6082V7.02439H73.779ZM73.779 5.85366V7.02439H72.6082V5.85366H73.779ZM73.779 4.68293V5.85366H72.6082V4.68293H73.779ZM73.779 3.5122V4.68293H72.6082V3.5122H73.779ZM73.779 2.34147V3.5122H72.6082V2.34147H73.779ZM74.9497 9.36586V10.5366H73.779V9.36586H74.9497ZM74.9497 10.5366V11.7073H73.779V10.5366H74.9497ZM74.9497 11.7073V12.8781H73.779V11.7073H74.9497ZM74.9497 12.8781V14.0488H73.779V12.8781H74.9497ZM74.9497 14.0488V15.2195H73.779V14.0488H74.9497ZM74.9497 15.2195V16.3902H73.779V15.2195H74.9497ZM74.9497 16.3902V17.561H73.779V16.3902H74.9497ZM74.9497 17.561V18.7317H73.779V17.561H74.9497ZM74.9497 18.7317V19.9024H73.779V18.7317H74.9497ZM76.1204 17.561V18.7317H74.9497V17.561H76.1204ZM76.1204 16.3902V17.561H74.9497V16.3902H76.1204ZM88.9985 1.90735e-06V1.17074H87.8277V1.90735e-06H88.9985ZM88.9985 1.17074V2.34147H87.8277V1.17074H88.9985ZM88.9985 2.34147V3.5122H87.8277V2.34147H88.9985ZM88.9985 4.68293V5.85366H87.8277V4.68293H88.9985ZM88.9985 5.85366V7.02439H87.8277V5.85366H88.9985ZM88.9985 7.02439V8.19512H87.8277V7.02439H88.9985ZM88.9985 8.19512V9.36586H87.8277V8.19512H88.9985ZM88.9985 9.36586V10.5366H87.8277V9.36586H88.9985ZM88.9985 10.5366V11.7073H87.8277V10.5366H88.9985ZM88.9985 11.7073V12.8781H87.8277V11.7073H88.9985ZM90.1692 12.8781V14.0488H88.9985V12.8781H90.1692ZM90.1692 14.0488V15.2195H88.9985V14.0488H90.1692ZM90.1692 15.2195V16.3902H88.9985V15.2195H90.1692ZM90.1692 16.3902V17.561H88.9985V16.3902H90.1692ZM90.1692 17.561V18.7317H88.9985V17.561H90.1692ZM90.1692 18.7317V19.9024H88.9985V18.7317H90.1692ZM91.3399 18.7317V19.9024H90.1692V18.7317H91.3399ZM91.3399 19.9024V21.0732H90.1692V19.9024H91.3399ZM91.3399 21.0732V22.2439H90.1692V21.0732H91.3399ZM91.3399 22.2439V23.4146H90.1692V22.2439H91.3399ZM91.3399 23.4146V24.5854H90.1692V23.4146H91.3399ZM91.3399 24.5854V25.7561H90.1692V24.5854H91.3399ZM91.3399 25.7561V26.9268H90.1692V25.7561H91.3399ZM91.3399 26.9268V28.0976H90.1692V26.9268H91.3399ZM91.3399 28.0976V29.2683H90.1692V28.0976H91.3399ZM90.1692 28.0976V29.2683H88.9985V28.0976H90.1692ZM90.1692 26.9268V28.0976H88.9985V26.9268H90.1692ZM90.1692 25.7561V26.9268H88.9985V25.7561H90.1692ZM90.1692 24.5854V25.7561H88.9985V24.5854H90.1692ZM90.1692 23.4146V24.5854H88.9985V23.4146H90.1692ZM90.1692 22.2439V23.4146H88.9985V22.2439H90.1692ZM90.1692 21.0732V22.2439H88.9985V21.0732H90.1692ZM88.9985 21.0732V22.2439H87.8277V21.0732H88.9985ZM88.9985 19.9024V21.0732H87.8277V19.9024H88.9985ZM90.1692 19.9024V21.0732H88.9985V19.9024H90.1692ZM88.9985 12.8781V14.0488H87.8277V12.8781H88.9985ZM88.9985 14.0488V15.2195H87.8277V14.0488H88.9985ZM88.9985 15.2195V16.3902H87.8277V15.2195H88.9985ZM88.9985 16.3902V17.561H87.8277V16.3902H88.9985ZM88.9985 17.561V18.7317H87.8277V17.561H88.9985ZM88.9985 18.7317V19.9024H87.8277V18.7317H88.9985ZM88.9985 3.5122V4.68293H87.8277V3.5122H88.9985ZM88.9985 22.2439V23.4146H87.8277V22.2439H88.9985ZM88.9985 23.4146V24.5854H87.8277V23.4146H88.9985ZM88.9985 24.5854V25.7561H87.8277V24.5854H88.9985ZM88.9985 25.7561V26.9268H87.8277V25.7561H88.9985ZM88.9985 26.9268V28.0976H87.8277V26.9268H88.9985ZM88.9985 28.0976V29.2683H87.8277V28.0976H88.9985ZM92.5107 28.0976V29.2683H91.3399V28.0976H92.5107ZM93.6814 28.0976V29.2683H92.5107V28.0976H93.6814ZM93.6814 26.9268V28.0976H92.5107V26.9268H93.6814ZM93.6814 25.7561V26.9268H92.5107V25.7561H93.6814ZM93.6814 24.5854V25.7561H92.5107V24.5854H93.6814ZM93.6814 23.4146V24.5854H92.5107V23.4146H93.6814ZM93.6814 22.2439V23.4146H92.5107V22.2439H93.6814ZM93.6814 21.0732V22.2439H92.5107V21.0732H93.6814ZM93.6814 19.9024V21.0732H92.5107V19.9024H93.6814ZM93.6814 18.7317V19.9024H92.5107V18.7317H93.6814ZM93.6814 17.561V18.7317H92.5107V17.561H93.6814ZM93.6814 16.3902V17.561H92.5107V16.3902H93.6814ZM93.6814 15.2195V16.3902H92.5107V15.2195H93.6814ZM93.6814 14.0488V15.2195H92.5107V14.0488H93.6814ZM93.6814 12.8781V14.0488H92.5107V12.8781H93.6814ZM93.6814 11.7073V12.8781H92.5107V11.7073H93.6814ZM93.6814 10.5366V11.7073H92.5107V10.5366H93.6814ZM93.6814 9.36586V10.5366H92.5107V9.36586H93.6814ZM93.6814 8.19512V9.36586H92.5107V8.19512H93.6814ZM93.6814 7.02439V8.19512H92.5107V7.02439H93.6814ZM90.1692 1.90735e-06V1.17074H88.9985V1.90735e-06H90.1692ZM91.3399 1.90735e-06V1.17074H90.1692V1.90735e-06H91.3399ZM92.5107 1.90735e-06V1.17074H91.3399V1.90735e-06H92.5107ZM93.6814 1.90735e-06V1.17074H92.5107V1.90735e-06H93.6814ZM93.6814 1.17074V2.34147H92.5107V1.17074H93.6814ZM93.6814 2.34147V3.5122H92.5107V2.34147H93.6814ZM93.6814 3.5122V4.68293H92.5107V3.5122H93.6814ZM93.6814 4.68293V5.85366H92.5107V4.68293H93.6814ZM93.6814 5.85366V7.02439H92.5107V5.85366H93.6814ZM90.1692 1.17074V2.34147H88.9985V1.17074H90.1692ZM91.3399 1.17074V2.34147H90.1692V1.17074H91.3399ZM92.5107 1.17074V2.34147H91.3399V1.17074H92.5107ZM92.5107 2.34147V3.5122H91.3399V2.34147H92.5107ZM92.5107 3.5122V4.68293H91.3399V3.5122H92.5107ZM92.5107 4.68293V5.85366H91.3399V4.68293H92.5107ZM92.5107 5.85366V7.02439H91.3399V5.85366H92.5107ZM91.3399 5.85366V7.02439H90.1692V5.85366H91.3399ZM91.3399 4.68293V5.85366H90.1692V4.68293H91.3399ZM91.3399 3.5122V4.68293H90.1692V3.5122H91.3399ZM91.3399 2.34147V3.5122H90.1692V2.34147H91.3399ZM90.1692 2.34147V3.5122H88.9985V2.34147H90.1692ZM90.1692 3.5122V4.68293H88.9985V3.5122H90.1692ZM90.1692 4.68293V5.85366H88.9985V4.68293H90.1692ZM90.1692 5.85366V7.02439H88.9985V5.85366H90.1692ZM90.1692 7.02439V8.19512H88.9985V7.02439H90.1692ZM90.1692 8.19512V9.36586H88.9985V8.19512H90.1692ZM90.1692 9.36586V10.5366H88.9985V9.36586H90.1692ZM90.1692 10.5366V11.7073H88.9985V10.5366H90.1692ZM91.3399 10.5366V11.7073H90.1692V10.5366H91.3399ZM91.3399 9.36586V10.5366H90.1692V9.36586H91.3399ZM91.3399 8.19512V9.36586H90.1692V8.19512H91.3399ZM91.3399 7.02439V8.19512H90.1692V7.02439H91.3399ZM92.5107 7.02439V8.19512H91.3399V7.02439H92.5107ZM92.5107 8.19512V9.36586H91.3399V8.19512H92.5107ZM92.5107 9.36586V10.5366H91.3399V9.36586H92.5107ZM92.5107 10.5366V11.7073H91.3399V10.5366H92.5107ZM92.5107 11.7073V12.8781H91.3399V11.7073H92.5107ZM92.5107 12.8781V14.0488H91.3399V12.8781H92.5107ZM92.5107 14.0488V15.2195H91.3399V14.0488H92.5107ZM92.5107 15.2195V16.3902H91.3399V15.2195H92.5107ZM92.5107 16.3902V17.561H91.3399V16.3902H92.5107ZM92.5107 17.561V18.7317H91.3399V17.561H92.5107ZM91.3399 17.561V18.7317H90.1692V17.561H91.3399ZM91.3399 16.3902V17.561H90.1692V16.3902H91.3399ZM91.3399 15.2195V16.3902H90.1692V15.2195H91.3399ZM91.3399 14.0488V15.2195H90.1692V14.0488H91.3399ZM91.3399 12.8781V14.0488H90.1692V12.8781H91.3399ZM90.1692 11.7073V12.8781H88.9985V11.7073H90.1692ZM91.3399 11.7073V12.8781H90.1692V11.7073H91.3399ZM92.5107 18.7317V19.9024H91.3399V18.7317H92.5107ZM92.5107 19.9024V21.0732H91.3399V19.9024H92.5107ZM92.5107 21.0732V22.2439H91.3399V21.0732H92.5107ZM92.5107 22.2439V23.4146H91.3399V22.2439H92.5107ZM92.5107 23.4146V24.5854H91.3399V23.4146H92.5107ZM92.5107 24.5854V25.7561H91.3399V24.5854H92.5107ZM92.5107 25.7561V26.9268H91.3399V25.7561H92.5107ZM92.5107 26.9268V28.0976H91.3399V26.9268H92.5107ZM79.6326 3.5122V4.68293H78.4619V3.5122H79.6326ZM79.6326 4.68293V5.85366H78.4619V4.68293H79.6326ZM80.8034 5.85366V7.02439H79.6326V5.85366H80.8034ZM80.8034 7.02439V8.19512H79.6326V7.02439H80.8034ZM81.9741 8.19512V9.36586H80.8034V8.19512H81.9741ZM81.9741 9.36586V10.5366H80.8034V9.36586H81.9741ZM83.1448 10.5366V11.7073H81.9741V10.5366H83.1448ZM83.1448 11.7073V12.8781H81.9741V11.7073H83.1448ZM84.3156 12.8781V14.0488H83.1448V12.8781H84.3156ZM84.3156 14.0488V15.2195H83.1448V14.0488H84.3156ZM85.4863 15.2195V16.3902H84.3156V15.2195H85.4863ZM85.4863 16.3902V17.561H84.3156V16.3902H85.4863ZM86.657 17.561V18.7317H85.4863V17.561H86.657ZM86.657 18.7317V19.9024H85.4863V18.7317H86.657ZM87.8277 19.9024V21.0732H86.657V19.9024H87.8277ZM87.8277 21.0732V22.2439H86.657V21.0732H87.8277ZM79.6326 5.85366V7.02439H78.4619V5.85366H79.6326ZM79.6326 7.02439V8.19512H78.4619V7.02439H79.6326ZM79.6326 8.19512V9.36586H78.4619V8.19512H79.6326ZM79.6326 9.36586V10.5366H78.4619V9.36586H79.6326ZM79.6326 10.5366V11.7073H78.4619V10.5366H79.6326ZM80.8034 8.19512V9.36586H79.6326V8.19512H80.8034ZM80.8034 9.36586V10.5366H79.6326V9.36586H80.8034ZM80.8034 10.5366V11.7073H79.6326V10.5366H80.8034ZM80.8034 11.7073V12.8781H79.6326V11.7073H80.8034ZM80.8034 12.8781V14.0488H79.6326V12.8781H80.8034ZM81.9741 10.5366V11.7073H80.8034V10.5366H81.9741ZM81.9741 11.7073V12.8781H80.8034V11.7073H81.9741ZM81.9741 12.8781V14.0488H80.8034V12.8781H81.9741ZM81.9741 14.0488V15.2195H80.8034V14.0488H81.9741ZM81.9741 15.2195V16.3902H80.8034V15.2195H81.9741ZM83.1448 12.8781V14.0488H81.9741V12.8781H83.1448ZM83.1448 14.0488V15.2195H81.9741V14.0488H83.1448ZM83.1448 15.2195V16.3902H81.9741V15.2195H83.1448ZM83.1448 16.3902V17.561H81.9741V16.3902H83.1448ZM83.1448 17.561V18.7317H81.9741V17.561H83.1448ZM84.3156 15.2195V16.3902H83.1448V15.2195H84.3156ZM84.3156 16.3902V17.561H83.1448V16.3902H84.3156ZM84.3156 17.561V18.7317H83.1448V17.561H84.3156ZM84.3156 18.7317V19.9024H83.1448V18.7317H84.3156ZM84.3156 19.9024V21.0732H83.1448V19.9024H84.3156ZM85.4863 17.561V18.7317H84.3156V17.561H85.4863ZM85.4863 18.7317V19.9024H84.3156V18.7317H85.4863ZM85.4863 19.9024V21.0732H84.3156V19.9024H85.4863ZM85.4863 21.0732V22.2439H84.3156V21.0732H85.4863ZM85.4863 22.2439V23.4146H84.3156V22.2439H85.4863ZM86.657 19.9024V21.0732H85.4863V19.9024H86.657ZM86.657 21.0732V22.2439H85.4863V21.0732H86.657ZM86.657 22.2439V23.4146H85.4863V22.2439H86.657ZM86.657 23.4146V24.5854H85.4863V23.4146H86.657ZM86.657 24.5854V25.7561H85.4863V24.5854H86.657ZM87.8277 22.2439V23.4146H86.657V22.2439H87.8277ZM87.8277 23.4146V24.5854H86.657V23.4146H87.8277ZM87.8277 24.5854V25.7561H86.657V24.5854H87.8277ZM87.8277 25.7561V26.9268H86.657V25.7561H87.8277ZM87.8277 26.9268V28.0976H86.657V26.9268H87.8277ZM79.6326 11.7073V12.8781H78.4619V11.7073H79.6326ZM80.8034 14.0488V15.2195H79.6326V14.0488H80.8034ZM81.9741 16.3902V17.561H80.8034V16.3902H81.9741ZM83.1448 18.7317V19.9024H81.9741V18.7317H83.1448ZM84.3156 21.0732V22.2439H83.1448V21.0732H84.3156ZM85.4863 23.4146V24.5854H84.3156V23.4146H85.4863ZM86.657 25.7561V26.9268H85.4863V25.7561H86.657ZM87.8277 28.0976V29.2683H86.657V28.0976H87.8277ZM79.6326 2.34147V3.5122H78.4619V2.34147H79.6326ZM80.8034 4.68293V5.85366H79.6326V4.68293H80.8034ZM81.9741 7.02439V8.19512H80.8034V7.02439H81.9741ZM83.1448 9.36586V10.5366H81.9741V9.36586H83.1448ZM84.3156 11.7073V12.8781H83.1448V11.7073H84.3156ZM85.4863 14.0488V15.2195H84.3156V14.0488H85.4863ZM86.657 16.3902V17.561H85.4863V16.3902H86.657ZM87.8277 18.7317V19.9024H86.657V18.7317H87.8277ZM78.4619 1.90735e-06V1.17074H77.2912V1.90735e-06H78.4619ZM78.4619 1.17074V2.34147H77.2912V1.17074H78.4619ZM78.4619 2.34147V3.5122H77.2912V2.34147H78.4619ZM78.4619 3.5122V4.68293H77.2912V3.5122H78.4619ZM78.4619 4.68293V5.85366H77.2912V4.68293H78.4619ZM78.4619 5.85366V7.02439H77.2912V5.85366H78.4619ZM78.4619 7.02439V8.19512H77.2912V7.02439H78.4619ZM78.4619 8.19512V9.36586H77.2912V8.19512H78.4619ZM78.4619 9.36586V10.5366H77.2912V9.36586H78.4619ZM78.4619 10.5366V11.7073H77.2912V10.5366H78.4619ZM79.6326 12.8781V14.0488H78.4619V12.8781H79.6326ZM80.8034 15.2195V16.3902H79.6326V15.2195H80.8034ZM81.9741 17.561V18.7317H80.8034V17.561H81.9741ZM83.1448 19.9024V21.0732H81.9741V19.9024H83.1448ZM84.3156 22.2439V23.4146H83.1448V22.2439H84.3156ZM85.4863 24.5854V25.7561H84.3156V24.5854H85.4863ZM86.657 26.9268V28.0976H85.4863V26.9268H86.657ZM79.6326 1.17074V2.34147H78.4619V1.17074H79.6326ZM80.8034 3.5122V4.68293H79.6326V3.5122H80.8034ZM81.9741 5.85366V7.02439H80.8034V5.85366H81.9741ZM83.1448 8.19512V9.36586H81.9741V8.19512H83.1448ZM84.3156 10.5366V11.7073H83.1448V10.5366H84.3156ZM85.4863 12.8781V14.0488H84.3156V12.8781H85.4863ZM86.657 15.2195V16.3902H85.4863V15.2195H86.657ZM87.8277 17.561V18.7317H86.657V17.561H87.8277ZM99.5145 28.0976V29.2683H98.3438V28.0976H99.5145ZM99.5145 26.9268V28.0976H98.3438V26.9268H99.5145ZM99.5145 25.7561V26.9268H98.3438V25.7561H99.5145ZM99.5145 24.5854V25.7561H98.3438V24.5854H99.5145ZM99.5145 23.4146V24.5854H98.3438V23.4146H99.5145ZM99.5145 22.2439V23.4146H98.3438V22.2439H99.5145ZM99.5145 21.0732V22.2439H98.3438V21.0732H99.5145ZM99.5145 19.9024V21.0732H98.3438V19.9024H99.5145ZM99.5145 18.7317V19.9024H98.3438V18.7317H99.5145ZM99.5145 17.561V18.7317H98.3438V17.561H99.5145ZM99.5145 16.3902V17.561H98.3438V16.3902H99.5145ZM99.5145 15.2195V16.3902H98.3438V15.2195H99.5145ZM99.5145 14.0488V15.2195H98.3438V14.0488H99.5145ZM99.5145 12.8781V14.0488H98.3438V12.8781H99.5145ZM99.5145 11.7073V12.8781H98.3438V11.7073H99.5145ZM100.685 11.7073V12.8781H99.5145V11.7073H100.685ZM100.685 12.8781V14.0488H99.5145V12.8781H100.685ZM100.685 14.0488V15.2195H99.5145V14.0488H100.685ZM100.685 15.2195V16.3902H99.5145V15.2195H100.685ZM100.685 16.3902V17.561H99.5145V16.3902H100.685ZM100.685 17.561V18.7317H99.5145V17.561H100.685ZM100.685 18.7317V19.9024H99.5145V18.7317H100.685ZM101.856 19.9024V21.0732H100.685V19.9024H101.856ZM101.856 21.0732V22.2439H100.685V21.0732H101.856ZM101.856 22.2439V23.4146H100.685V22.2439H101.856ZM101.856 23.4146V24.5854H100.685V23.4146H101.856ZM101.856 24.5854V25.7561H100.685V24.5854H101.856ZM101.856 25.7561V26.9268H100.685V25.7561H101.856ZM101.856 26.9268V28.0976H100.685V26.9268H101.856ZM101.856 28.0976V29.2683H100.685V28.0976H101.856ZM103.027 28.0976V29.2683H101.856V28.0976H103.027ZM104.197 28.0976V29.2683H103.027V28.0976H104.197ZM104.197 26.9268V28.0976H103.027V26.9268H104.197ZM104.197 25.7561V26.9268H103.027V25.7561H104.197ZM104.197 24.5854V25.7561H103.027V24.5854H104.197ZM104.197 23.4146V24.5854H103.027V23.4146H104.197ZM104.197 22.2439V23.4146H103.027V22.2439H104.197ZM104.197 21.0732V22.2439H103.027V21.0732H104.197ZM104.197 19.9024V21.0732H103.027V19.9024H104.197ZM103.027 19.9024V21.0732H101.856V19.9024H103.027ZM103.027 18.7317V19.9024H101.856V18.7317H103.027ZM103.027 21.0732V22.2439H101.856V21.0732H103.027ZM103.027 22.2439V23.4146H101.856V22.2439H103.027ZM103.027 23.4146V24.5854H101.856V23.4146H103.027ZM103.027 24.5854V25.7561H101.856V24.5854H103.027ZM103.027 25.7561V26.9268H101.856V25.7561H103.027ZM103.027 26.9268V28.0976H101.856V26.9268H103.027ZM100.685 28.0976V29.2683H99.5145V28.0976H100.685ZM100.685 26.9268V28.0976H99.5145V26.9268H100.685ZM100.685 25.7561V26.9268H99.5145V25.7561H100.685ZM100.685 24.5854V25.7561H99.5145V24.5854H100.685ZM100.685 23.4146V24.5854H99.5145V23.4146H100.685ZM100.685 22.2439V23.4146H99.5145V22.2439H100.685ZM100.685 21.0732V22.2439H99.5145V21.0732H100.685ZM100.685 19.9024V21.0732H99.5145V19.9024H100.685ZM99.5145 1.90735e-06V1.17074H98.3438V1.90735e-06H99.5145ZM99.5145 1.17074V2.34147H98.3438V1.17074H99.5145ZM99.5145 2.34147V3.5122H98.3438V2.34147H99.5145ZM99.5145 3.5122V4.68293H98.3438V3.5122H99.5145ZM99.5145 4.68293V5.85366H98.3438V4.68293H99.5145ZM99.5145 5.85366V7.02439H98.3438V5.85366H99.5145ZM99.5145 7.02439V8.19512H98.3438V7.02439H99.5145ZM99.5145 8.19512V9.36586H98.3438V8.19512H99.5145ZM99.5145 9.36586V10.5366H98.3438V9.36586H99.5145ZM99.5145 10.5366V11.7073H98.3438V10.5366H99.5145ZM103.027 1.90735e-06V1.17074H101.856V1.90735e-06H103.027ZM103.027 1.17074V2.34147H101.856V1.17074H103.027ZM103.027 2.34147V3.5122H101.856V2.34147H103.027ZM103.027 3.5122V4.68293H101.856V3.5122H103.027ZM103.027 4.68293V5.85366H101.856V4.68293H103.027ZM103.027 5.85366V7.02439H101.856V5.85366H103.027ZM103.027 8.19512V9.36586H101.856V8.19512H103.027ZM103.027 9.36586V10.5366H101.856V9.36586H103.027ZM103.027 10.5366V11.7073H101.856V10.5366H103.027ZM103.027 11.7073V12.8781H101.856V11.7073H103.027ZM103.027 12.8781V14.0488H101.856V12.8781H103.027ZM103.027 14.0488V15.2195H101.856V14.0488H103.027ZM103.027 15.2195V16.3902H101.856V15.2195H103.027ZM104.197 16.3902V17.561H103.027V16.3902H104.197ZM104.197 17.561V18.7317H103.027V17.561H104.197ZM104.197 18.7317V19.9024H103.027V18.7317H104.197ZM104.197 15.2195V16.3902H103.027V15.2195H104.197ZM104.197 14.0488V15.2195H103.027V14.0488H104.197ZM104.197 12.8781V14.0488H103.027V12.8781H104.197ZM104.197 11.7073V12.8781H103.027V11.7073H104.197ZM104.197 10.5366V11.7073H103.027V10.5366H104.197ZM104.197 9.36586V10.5366H103.027V9.36586H104.197ZM104.197 8.19512V9.36586H103.027V8.19512H104.197ZM104.197 7.02439V8.19512H103.027V7.02439H104.197ZM104.197 5.85366V7.02439H103.027V5.85366H104.197ZM104.197 4.68293V5.85366H103.027V4.68293H104.197ZM103.027 7.02439V8.19512H101.856V7.02439H103.027ZM104.197 3.5122V4.68293H103.027V3.5122H104.197ZM104.197 2.34147V3.5122H103.027V2.34147H104.197ZM104.197 1.17074V2.34147H103.027V1.17074H104.197ZM104.197 1.90735e-06V1.17074H103.027V1.90735e-06H104.197ZM101.856 1.90735e-06V1.17074H100.685V1.90735e-06H101.856ZM100.685 1.90735e-06V1.17074H99.5145V1.90735e-06H100.685ZM100.685 1.17074V2.34147H99.5145V1.17074H100.685ZM101.856 1.17074V2.34147H100.685V1.17074H101.856ZM101.856 2.34147V3.5122H100.685V2.34147H101.856ZM101.856 3.5122V4.68293H100.685V3.5122H101.856ZM101.856 4.68293V5.85366H100.685V4.68293H101.856ZM101.856 5.85366V7.02439H100.685V5.85366H101.856ZM101.856 7.02439V8.19512H100.685V7.02439H101.856ZM101.856 8.19512V9.36586H100.685V8.19512H101.856ZM100.685 9.36586V10.5366H99.5145V9.36586H100.685ZM100.685 10.5366V11.7073H99.5145V10.5366H100.685ZM100.685 8.19512V9.36586H99.5145V8.19512H100.685ZM100.685 7.02439V8.19512H99.5145V7.02439H100.685ZM100.685 5.85366V7.02439H99.5145V5.85366H100.685ZM100.685 4.68293V5.85366H99.5145V4.68293H100.685ZM100.685 3.5122V4.68293H99.5145V3.5122H100.685ZM100.685 2.34147V3.5122H99.5145V2.34147H100.685ZM101.856 9.36586V10.5366H100.685V9.36586H101.856ZM101.856 10.5366V11.7073H100.685V10.5366H101.856ZM101.856 11.7073V12.8781H100.685V11.7073H101.856ZM101.856 12.8781V14.0488H100.685V12.8781H101.856ZM101.856 14.0488V15.2195H100.685V14.0488H101.856ZM101.856 15.2195V16.3902H100.685V15.2195H101.856ZM101.856 16.3902V17.561H100.685V16.3902H101.856ZM101.856 17.561V18.7317H100.685V17.561H101.856ZM101.856 18.7317V19.9024H100.685V18.7317H101.856ZM103.027 17.561V18.7317H101.856V17.561H103.027ZM103.027 16.3902V17.561H101.856V16.3902H103.027ZM115.905 1.90735e-06V1.17074H114.734V1.90735e-06H115.905ZM115.905 1.17074V2.34147H114.734V1.17074H115.905ZM115.905 2.34147V3.5122H114.734V2.34147H115.905ZM115.905 4.68293V5.85366H114.734V4.68293H115.905ZM115.905 5.85366V7.02439H114.734V5.85366H115.905ZM115.905 7.02439V8.19512H114.734V7.02439H115.905ZM115.905 8.19512V9.36586H114.734V8.19512H115.905ZM115.905 9.36586V10.5366H114.734V9.36586H115.905ZM115.905 10.5366V11.7073H114.734V10.5366H115.905ZM115.905 11.7073V12.8781H114.734V11.7073H115.905ZM117.075 12.8781V14.0488H115.905V12.8781H117.075ZM117.075 14.0488V15.2195H115.905V14.0488H117.075ZM117.075 15.2195V16.3902H115.905V15.2195H117.075ZM117.075 16.3902V17.561H115.905V16.3902H117.075ZM117.075 17.561V18.7317H115.905V17.561H117.075ZM117.075 18.7317V19.9024H115.905V18.7317H117.075ZM118.246 18.7317V19.9024H117.075V18.7317H118.246ZM118.246 19.9024V21.0732H117.075V19.9024H118.246ZM118.246 21.0732V22.2439H117.075V21.0732H118.246ZM118.246 22.2439V23.4146H117.075V22.2439H118.246ZM118.246 23.4146V24.5854H117.075V23.4146H118.246ZM118.246 24.5854V25.7561H117.075V24.5854H118.246ZM118.246 25.7561V26.9268H117.075V25.7561H118.246ZM118.246 26.9268V28.0976H117.075V26.9268H118.246ZM118.246 28.0976V29.2683H117.075V28.0976H118.246ZM117.075 28.0976V29.2683H115.905V28.0976H117.075ZM117.075 26.9268V28.0976H115.905V26.9268H117.075ZM117.075 25.7561V26.9268H115.905V25.7561H117.075ZM117.075 24.5854V25.7561H115.905V24.5854H117.075ZM117.075 23.4146V24.5854H115.905V23.4146H117.075ZM117.075 22.2439V23.4146H115.905V22.2439H117.075ZM117.075 21.0732V22.2439H115.905V21.0732H117.075ZM115.905 21.0732V22.2439H114.734V21.0732H115.905ZM115.905 19.9024V21.0732H114.734V19.9024H115.905ZM117.075 19.9024V21.0732H115.905V19.9024H117.075ZM115.905 12.8781V14.0488H114.734V12.8781H115.905ZM115.905 14.0488V15.2195H114.734V14.0488H115.905ZM115.905 15.2195V16.3902H114.734V15.2195H115.905ZM115.905 16.3902V17.561H114.734V16.3902H115.905ZM115.905 17.561V18.7317H114.734V17.561H115.905ZM115.905 18.7317V19.9024H114.734V18.7317H115.905ZM115.905 3.5122V4.68293H114.734V3.5122H115.905ZM115.905 22.2439V23.4146H114.734V22.2439H115.905ZM115.905 23.4146V24.5854H114.734V23.4146H115.905ZM115.905 24.5854V25.7561H114.734V24.5854H115.905ZM115.905 25.7561V26.9268H114.734V25.7561H115.905ZM115.905 26.9268V28.0976H114.734V26.9268H115.905ZM115.905 28.0976V29.2683H114.734V28.0976H115.905ZM119.417 28.0976V29.2683H118.246V28.0976H119.417ZM120.588 28.0976V29.2683H119.417V28.0976H120.588ZM120.588 26.9268V28.0976H119.417V26.9268H120.588ZM120.588 25.7561V26.9268H119.417V25.7561H120.588ZM120.588 24.5854V25.7561H119.417V24.5854H120.588ZM120.588 23.4146V24.5854H119.417V23.4146H120.588ZM120.588 22.2439V23.4146H119.417V22.2439H120.588ZM120.588 21.0732V22.2439H119.417V21.0732H120.588ZM120.588 19.9024V21.0732H119.417V19.9024H120.588ZM120.588 18.7317V19.9024H119.417V18.7317H120.588ZM120.588 17.561V18.7317H119.417V17.561H120.588ZM120.588 16.3902V17.561H119.417V16.3902H120.588ZM120.588 15.2195V16.3902H119.417V15.2195H120.588ZM120.588 14.0488V15.2195H119.417V14.0488H120.588ZM120.588 12.8781V14.0488H119.417V12.8781H120.588ZM120.588 11.7073V12.8781H119.417V11.7073H120.588ZM120.588 10.5366V11.7073H119.417V10.5366H120.588ZM120.588 9.36586V10.5366H119.417V9.36586H120.588ZM120.588 8.19512V9.36586H119.417V8.19512H120.588ZM120.588 7.02439V8.19512H119.417V7.02439H120.588ZM117.075 1.90735e-06V1.17074H115.905V1.90735e-06H117.075ZM118.246 1.90735e-06V1.17074H117.075V1.90735e-06H118.246ZM119.417 1.90735e-06V1.17074H118.246V1.90735e-06H119.417ZM120.588 1.90735e-06V1.17074H119.417V1.90735e-06H120.588ZM120.588 1.17074V2.34147H119.417V1.17074H120.588ZM120.588 2.34147V3.5122H119.417V2.34147H120.588ZM120.588 3.5122V4.68293H119.417V3.5122H120.588ZM120.588 4.68293V5.85366H119.417V4.68293H120.588ZM120.588 5.85366V7.02439H119.417V5.85366H120.588ZM117.075 1.17074V2.34147H115.905V1.17074H117.075ZM118.246 1.17074V2.34147H117.075V1.17074H118.246ZM119.417 1.17074V2.34147H118.246V1.17074H119.417ZM119.417 2.34147V3.5122H118.246V2.34147H119.417ZM119.417 3.5122V4.68293H118.246V3.5122H119.417ZM119.417 4.68293V5.85366H118.246V4.68293H119.417ZM119.417 5.85366V7.02439H118.246V5.85366H119.417ZM118.246 5.85366V7.02439H117.075V5.85366H118.246ZM118.246 4.68293V5.85366H117.075V4.68293H118.246ZM118.246 3.5122V4.68293H117.075V3.5122H118.246ZM118.246 2.34147V3.5122H117.075V2.34147H118.246ZM117.075 2.34147V3.5122H115.905V2.34147H117.075ZM117.075 3.5122V4.68293H115.905V3.5122H117.075ZM117.075 4.68293V5.85366H115.905V4.68293H117.075ZM117.075 5.85366V7.02439H115.905V5.85366H117.075ZM117.075 7.02439V8.19512H115.905V7.02439H117.075ZM117.075 8.19512V9.36586H115.905V8.19512H117.075ZM117.075 9.36586V10.5366H115.905V9.36586H117.075ZM117.075 10.5366V11.7073H115.905V10.5366H117.075ZM118.246 10.5366V11.7073H117.075V10.5366H118.246ZM118.246 9.36586V10.5366H117.075V9.36586H118.246ZM118.246 8.19512V9.36586H117.075V8.19512H118.246ZM118.246 7.02439V8.19512H117.075V7.02439H118.246ZM119.417 7.02439V8.19512H118.246V7.02439H119.417ZM119.417 8.19512V9.36586H118.246V8.19512H119.417ZM119.417 9.36586V10.5366H118.246V9.36586H119.417ZM119.417 10.5366V11.7073H118.246V10.5366H119.417ZM119.417 11.7073V12.8781H118.246V11.7073H119.417ZM119.417 12.8781V14.0488H118.246V12.8781H119.417ZM119.417 14.0488V15.2195H118.246V14.0488H119.417ZM119.417 15.2195V16.3902H118.246V15.2195H119.417ZM119.417 16.3902V17.561H118.246V16.3902H119.417ZM119.417 17.561V18.7317H118.246V17.561H119.417ZM118.246 17.561V18.7317H117.075V17.561H118.246ZM118.246 16.3902V17.561H117.075V16.3902H118.246ZM118.246 15.2195V16.3902H117.075V15.2195H118.246ZM118.246 14.0488V15.2195H117.075V14.0488H118.246ZM118.246 12.8781V14.0488H117.075V12.8781H118.246ZM117.075 11.7073V12.8781H115.905V11.7073H117.075ZM118.246 11.7073V12.8781H117.075V11.7073H118.246ZM119.417 18.7317V19.9024H118.246V18.7317H119.417ZM119.417 19.9024V21.0732H118.246V19.9024H119.417ZM119.417 21.0732V22.2439H118.246V21.0732H119.417ZM119.417 22.2439V23.4146H118.246V22.2439H119.417ZM119.417 23.4146V24.5854H118.246V23.4146H119.417ZM119.417 24.5854V25.7561H118.246V24.5854H119.417ZM119.417 25.7561V26.9268H118.246V25.7561H119.417ZM119.417 26.9268V28.0976H118.246V26.9268H119.417ZM106.539 3.5122V4.68293H105.368V3.5122H106.539ZM106.539 4.68293V5.85366H105.368V4.68293H106.539ZM107.71 5.85366V7.02439H106.539V5.85366H107.71ZM107.71 7.02439V8.19512H106.539V7.02439H107.71ZM108.88 8.19512V9.36586H107.71V8.19512H108.88ZM108.88 9.36586V10.5366H107.71V9.36586H108.88ZM110.051 10.5366V11.7073H108.88V10.5366H110.051ZM110.051 11.7073V12.8781H108.88V11.7073H110.051ZM111.222 12.8781V14.0488H110.051V12.8781H111.222ZM111.222 14.0488V15.2195H110.051V14.0488H111.222ZM112.393 15.2195V16.3902H111.222V15.2195H112.393ZM112.393 16.3902V17.561H111.222V16.3902H112.393ZM113.563 17.561V18.7317H112.393V17.561H113.563ZM113.563 18.7317V19.9024H112.393V18.7317H113.563ZM114.734 19.9024V21.0732H113.563V19.9024H114.734ZM114.734 21.0732V22.2439H113.563V21.0732H114.734ZM106.539 5.85366V7.02439H105.368V5.85366H106.539ZM106.539 7.02439V8.19512H105.368V7.02439H106.539ZM106.539 8.19512V9.36586H105.368V8.19512H106.539ZM106.539 9.36586V10.5366H105.368V9.36586H106.539ZM106.539 10.5366V11.7073H105.368V10.5366H106.539ZM107.71 8.19512V9.36586H106.539V8.19512H107.71ZM107.71 9.36586V10.5366H106.539V9.36586H107.71ZM107.71 10.5366V11.7073H106.539V10.5366H107.71ZM107.71 11.7073V12.8781H106.539V11.7073H107.71ZM107.71 12.8781V14.0488H106.539V12.8781H107.71ZM108.88 10.5366V11.7073H107.71V10.5366H108.88ZM108.88 11.7073V12.8781H107.71V11.7073H108.88ZM108.88 12.8781V14.0488H107.71V12.8781H108.88ZM108.88 14.0488V15.2195H107.71V14.0488H108.88ZM108.88 15.2195V16.3902H107.71V15.2195H108.88ZM110.051 12.8781V14.0488H108.88V12.8781H110.051ZM110.051 14.0488V15.2195H108.88V14.0488H110.051ZM110.051 15.2195V16.3902H108.88V15.2195H110.051ZM110.051 16.3902V17.561H108.88V16.3902H110.051ZM110.051 17.561V18.7317H108.88V17.561H110.051ZM111.222 15.2195V16.3902H110.051V15.2195H111.222ZM111.222 16.3902V17.561H110.051V16.3902H111.222ZM111.222 17.561V18.7317H110.051V17.561H111.222ZM111.222 18.7317V19.9024H110.051V18.7317H111.222ZM111.222 19.9024V21.0732H110.051V19.9024H111.222ZM112.393 17.561V18.7317H111.222V17.561H112.393ZM112.393 18.7317V19.9024H111.222V18.7317H112.393ZM112.393 19.9024V21.0732H111.222V19.9024H112.393ZM112.393 21.0732V22.2439H111.222V21.0732H112.393ZM112.393 22.2439V23.4146H111.222V22.2439H112.393ZM113.563 19.9024V21.0732H112.393V19.9024H113.563ZM113.563 21.0732V22.2439H112.393V21.0732H113.563ZM113.563 22.2439V23.4146H112.393V22.2439H113.563ZM113.563 23.4146V24.5854H112.393V23.4146H113.563ZM113.563 24.5854V25.7561H112.393V24.5854H113.563ZM114.734 22.2439V23.4146H113.563V22.2439H114.734ZM114.734 23.4146V24.5854H113.563V23.4146H114.734ZM114.734 24.5854V25.7561H113.563V24.5854H114.734ZM114.734 25.7561V26.9268H113.563V25.7561H114.734ZM114.734 26.9268V28.0976H113.563V26.9268H114.734ZM106.539 11.7073V12.8781H105.368V11.7073H106.539ZM107.71 14.0488V15.2195H106.539V14.0488H107.71ZM108.88 16.3902V17.561H107.71V16.3902H108.88ZM110.051 18.7317V19.9024H108.88V18.7317H110.051ZM111.222 21.0732V22.2439H110.051V21.0732H111.222ZM112.393 23.4146V24.5854H111.222V23.4146H112.393ZM113.563 25.7561V26.9268H112.393V25.7561H113.563ZM114.734 28.0976V29.2683H113.563V28.0976H114.734ZM106.539 2.34147V3.5122H105.368V2.34147H106.539ZM107.71 4.68293V5.85366H106.539V4.68293H107.71ZM108.88 7.02439V8.19512H107.71V7.02439H108.88ZM110.051 9.36586V10.5366H108.88V9.36586H110.051ZM111.222 11.7073V12.8781H110.051V11.7073H111.222ZM112.393 14.0488V15.2195H111.222V14.0488H112.393ZM113.563 16.3902V17.561H112.393V16.3902H113.563ZM114.734 18.7317V19.9024H113.563V18.7317H114.734ZM105.368 1.90735e-06V1.17074H104.197V1.90735e-06H105.368ZM105.368 1.17074V2.34147H104.197V1.17074H105.368ZM105.368 2.34147V3.5122H104.197V2.34147H105.368ZM105.368 3.5122V4.68293H104.197V3.5122H105.368ZM105.368 4.68293V5.85366H104.197V4.68293H105.368ZM105.368 5.85366V7.02439H104.197V5.85366H105.368ZM105.368 7.02439V8.19512H104.197V7.02439H105.368ZM105.368 8.19512V9.36586H104.197V8.19512H105.368ZM105.368 9.36586V10.5366H104.197V9.36586H105.368ZM105.368 10.5366V11.7073H104.197V10.5366H105.368ZM106.539 12.8781V14.0488H105.368V12.8781H106.539ZM107.71 15.2195V16.3902H106.539V15.2195H107.71ZM108.88 17.561V18.7317H107.71V17.561H108.88ZM110.051 19.9024V21.0732H108.88V19.9024H110.051ZM111.222 22.2439V23.4146H110.051V22.2439H111.222ZM112.393 24.5854V25.7561H111.222V24.5854H112.393ZM113.563 26.9268V28.0976H112.393V26.9268H113.563ZM106.539 1.17074V2.34147H105.368V1.17074H106.539ZM107.71 3.5122V4.68293H106.539V3.5122H107.71ZM108.88 5.85366V7.02439H107.71V5.85366H108.88ZM110.051 8.19512V9.36586H108.88V8.19512H110.051ZM111.222 10.5366V11.7073H110.051V10.5366H111.222ZM112.393 12.8781V14.0488H111.222V12.8781H112.393ZM113.563 15.2195V16.3902H112.393V15.2195H113.563ZM114.734 17.561V18.7317H113.563V17.561H114.734Z" fill="#5A7665"/>
</svg>
